<svg width="15" height="16" viewBox="0 0 15 16" fill="none" xmlns="http://www.w3.org/2000/svg">
<path d="M14.9963 15.3417V15.3411H15V9.82256C15 7.12285 14.4247 5.04321 11.3004 5.04321C9.79839 5.04321 8.79045 5.87582 8.37897 6.66517H8.33552V5.29525H5.37317V15.3411H8.45779V10.3668C8.45779 9.05704 8.70356 7.79057 10.3092 7.79057C11.8912 7.79057 11.9148 9.28525 11.9148 10.4508V15.3417H14.9963Z" fill="#F7F7EE"/>
<path d="M0.223877 5.26733H3.35821V15.1181H0.223877V5.26733Z" fill="#F7F7EE"/>
<path d="M1.79104 0.341797C0.802303 0.341797 0 1.14036 0 2.12449C0 3.10862 0.802303 3.92389 1.79104 3.92389C2.77979 3.92389 3.58209 3.10862 3.58209 2.12449C3.58147 1.14036 2.77916 0.341797 1.79104 0.341797V0.341797Z" fill="#F7F7EE"/>
</svg>
