<svg width="274" height="441" viewBox="0 0 274 441" fill="none" xmlns="http://www.w3.org/2000/svg">
<path d="M16.3571 440.355C11.5058 440.355 5.7103 438.999 -2.0062 435.926C-22.4858 427.595 -43.4864 402.574 -65.6591 376.114C-77.8688 361.583 -90.4691 346.554 -103.135 334.237C-121.628 311.984 -152.982 296.65 -183.327 281.787C-205.5 270.937 -226.436 260.669 -242.65 247.992L-242.683 247.965C-254.86 238.111 -260.557 228.59 -260.102 218.875C-259.223 199.915 -234.901 183.032 -206.705 163.491L-204.002 161.609C-183.1 147.05 -156.857 127.565 -118.861 98.4753L-115.637 96.095C-81.6456 70.9633 -39.3188 39.6871 15.5106 20.7276C125.332 -23.1975 221.446 10.8188 251.791 47.686C283.439 90.7808 280.704 136.533 241.373 222.639C200.185 312.399 108.955 381.788 71.6423 407.446C56.3721 415.915 46.7998 423.416 39.8322 428.896C30.9761 435.816 25.2131 440.355 16.3571 440.355ZM-239.785 245.335C-223.929 257.735 -203.188 267.893 -181.244 278.66C-150.54 293.689 -118.763 309.244 -99.8786 331.995C-87.1806 344.312 -74.5152 359.424 -62.2729 374.011C-40.3933 400.083 -19.7183 424.717 -0.247986 432.66C18.9944 440.272 23.5201 436.729 36.9669 426.211C44.0648 420.648 53.8 413.009 69.1678 404.484C106.025 379.103 196.604 310.24 237.433 221.283C276.211 136.422 279.043 91.5004 248.275 49.6235C218.809 13.8634 124.941 -19.1289 17.2036 23.9659C-37.0723 42.7593 -79.106 73.8141 -112.87 98.7521L-116.06 101.132C-154.089 130.25 -180.365 149.763 -201.333 164.349L-204.035 166.231C-231.45 185.218 -255.088 201.632 -255.902 218.958C-256.292 227.621 -251.018 236.229 -239.785 245.335Z" fill="#CCCCCC"/>
<path d="M10.0378 415.278C3.33061 415.278 -3.76729 413.451 -13.535 410.213L-13.7303 410.158C-32.4843 402.159 -47.3313 382.867 -63.0247 362.468C-73.7366 348.519 -84.8393 334.126 -98.1885 321.588C-117.008 301.244 -140.678 285.413 -163.534 270.107C-178.902 259.838 -193.424 250.123 -206.089 239.384L-206.317 239.163C-232.104 209.298 -213.61 196.123 -180.074 172.182C-176.428 169.58 -172.586 166.84 -168.581 163.906C-160.702 158.951 -152.302 153.416 -143.38 147.548C-103.756 121.448 -49.4476 85.7152 27.1638 56.7086C120.804 26.235 193.15 48.2668 223.365 83.6117C253.644 120.451 241.891 164.792 207.866 238.858C170.586 313.755 102.538 362.247 65.9742 388.292L61.9043 391.198C34.7175 408.359 23.0614 415.278 10.0378 415.278ZM-11.907 406.892C14.7588 415.693 19.2845 413.59 59.2996 388.403L63.2718 385.58C99.5426 359.728 167.07 311.596 203.959 237.557C237.43 164.736 249.119 121.226 219.946 85.7429C190.708 51.5328 120.25 30.3037 28.7917 60.0577C-47.2661 88.8429 -101.314 124.437 -140.808 150.399C-149.729 156.267 -158.13 161.802 -165.944 166.729C-169.851 169.58 -173.693 172.32 -177.339 174.949C-210.908 198.919 -226.276 209.879 -202.996 236.948C-190.526 247.494 -176.135 257.098 -160.93 267.283C-137.845 282.7 -114.012 298.67 -94.9651 319.263C-81.4857 331.912 -70.2854 346.443 -59.4758 360.503C-44.1405 380.431 -29.6192 399.28 -11.907 406.892Z" fill="#CCCCCC"/>
<path d="M4.57739 394.355C-3.98563 394.355 -11.93 391.753 -21.828 387.324C-38.368 378.855 -51.6521 361.335 -65.7176 342.818C-74.0527 331.802 -82.7134 320.426 -92.6114 309.992C-106.449 293.606 -122.859 279.601 -138.682 266.039C-151.673 254.912 -163.948 244.422 -173.618 233.6L-173.748 233.434C-193.349 205.369 -173.097 192.277 -136.306 168.501L-135.882 168.225L-129.077 164.267C-90.3322 141.82 -37.261 111.069 35.4433 88.7885C121.269 65.5112 175.903 89.2313 196.643 116.577C218.816 145.75 213.378 184.914 177.889 251.757C152.037 298.339 109.841 340.216 52.5043 376.225C30.3316 389.013 16.8196 394.355 4.57739 394.355ZM-170.2 231.469C-160.692 242.07 -148.548 252.477 -135.687 263.465C-119.733 277.11 -103.226 291.254 -89.2578 307.777C-79.2621 318.267 -70.5689 329.754 -62.1686 340.853C-48.3961 359.037 -35.3725 376.198 -19.7442 384.197C2.78665 394.327 14.0195 394.133 50.0624 373.292C106.78 337.642 148.521 296.236 174.047 250.235C208.853 184.665 214.388 146.497 193.094 118.487C171.573 90.117 114.92 70.9638 36.7783 92.1375C-35.34 114.252 -88.1508 144.837 -126.701 167.2L-133.766 171.325C-170.818 195.266 -187.781 206.227 -170.2 231.469Z" fill="#CCCCCC"/>
<path d="M1.51881 375.312C-8.05354 375.312 -17.0398 372.517 -27.068 367.037L-27.1331 367.009C-42.2405 358.207 -54.4176 341.656 -67.311 324.163C-73.2693 316.054 -79.4555 307.695 -86.1627 299.723C-95.1164 288.043 -105.047 277.249 -114.652 266.842C-126.438 254.055 -137.606 241.959 -144.899 230.224C-157.63 205.452 -139.006 192.499 -106.838 174.037C-73.6925 156.6 -22.4772 131.745 40.2966 117.076C100.238 106.586 145.137 115 166.854 140.741C190.296 168.474 184.468 212.454 150.867 261.417C115.671 319.043 60.0274 352.838 43.813 361.805C26.5567 370.884 13.5657 375.312 1.51881 375.312ZM-24.7889 364.02C-6.03488 374.233 8.68178 376.06 41.5338 358.761C57.4878 349.932 112.415 316.579 147.155 259.673C179.91 211.929 185.836 169.36 163.402 142.844C142.695 118.321 99.3261 110.433 41.2408 120.591C-20.8818 135.122 -71.739 159.783 -104.591 177.082C-137.704 196.069 -152.127 207.362 -141.155 228.701C-134.09 240.022 -123.052 251.979 -111.363 264.655C-101.693 275.145 -91.6977 285.967 -82.7114 297.731C-75.9717 305.702 -69.7855 314.144 -63.7946 322.281C-51.0966 339.414 -39.1474 355.633 -24.7889 364.02Z" fill="#CCCCCC"/>
<path d="M-0.502289 357.929C-10.6607 357.929 -20.0051 354.967 -29.7077 349.044L-29.9682 348.851C-67.1181 316.882 -111.04 243.674 -119.473 229.337L-119.603 229.004C-126.18 208.467 -111.333 196.4 -81.672 181.315C-53.7363 167.974 -9.61881 150.371 42.0849 142.151C89.6862 135.785 125.338 144.365 142.53 166.314C161.609 190.698 155.781 227.759 126.576 268.003C100.854 306.808 62.9553 334.735 36.0615 347.91C21.996 354.608 10.2747 357.929 -0.502289 357.929ZM-27.103 346.221C-8.5118 357.486 8.06075 357.099 33.9452 344.782C60.3506 331.856 97.5656 304.4 122.929 266.176C150.865 227.676 156.856 191.113 139.013 168.306C122.799 147.576 88.6118 139.521 42.8012 145.693C-8.28388 153.831 -51.913 171.268 -79.5556 184.443C-107.947 198.863 -121.329 209.574 -115.598 227.925C-91.3746 269.11 -55.4619 321.754 -27.103 346.221Z" fill="#CCCCCC"/>
<path d="M-1.98876 341.905C-12.8635 341.905 -22.273 338.833 -29.4035 332.882C-57.9252 309.384 -87.619 259.812 -96.3773 230.003C-97.8099 223.111 -95.7587 216.385 -90.354 209.964C-73.6837 190.174 -24.2916 173.097 41.8032 164.295C79.0833 161.223 106.889 169.72 120.173 188.237C135.215 209.217 129.81 239.746 105.358 271.963C73.5482 312.733 35.4867 338.75 3.54631 341.629C1.65789 341.822 -0.198013 341.905 -1.98876 341.905ZM56.3245 167.257C51.8313 167.257 47.1754 167.451 42.3567 167.866C-22.5009 176.501 -70.8836 193.025 -86.8701 212.068C-91.6237 217.714 -93.4145 223.499 -92.2098 229.283C-83.6142 258.484 -54.4413 307.253 -26.408 330.336C-19.0171 336.481 -8.79357 339.165 3.12303 338.086C33.8262 335.318 70.7481 309.882 101.842 270.026C125.024 239.469 130.559 209.604 116.591 190.119C105.879 175.2 84.7485 167.257 56.3245 167.257Z" fill="#CCCCCC"/>
<path d="M-1.119 326.68C-11.2123 326.68 -20.1009 323.913 -27.036 318.543C-51.7809 299.473 -74.6699 259.146 -75.9722 232.27V232.215C-76.135 207.443 -27.6872 187.1 39.189 183.889C67.6782 183.308 88.8091 191.39 98.7396 206.724C110.135 224.299 105.447 248.684 85.8787 273.649C61.6873 303.984 31.4074 323.691 4.83926 326.376C2.78804 326.57 0.801979 326.68 -1.119 326.68ZM-71.7396 232.16C-70.4372 258.232 -48.2319 297.369 -24.1708 315.886C-16.845 321.56 -7.01219 323.94 4.31835 322.805C29.6818 320.231 58.8547 301.106 82.3624 271.629C101.019 247.826 105.642 224.77 95.0278 208.412C85.8787 194.324 66.1479 186.851 39.3519 187.432C-24.0731 190.504 -71.8698 209.74 -71.7396 232.16Z" fill="#CCCCCC"/>
<path d="M-0.391861 312.261C-9.21536 312.261 -17.0947 309.964 -23.4437 305.453C-45.7466 289.704 -61.6029 257.819 -58.1191 235.787C-54.3422 214.641 -13.7411 199.473 34.1858 201.217C55.219 202.241 70.7171 209.603 77.8801 221.92C86.0849 236.036 82.3406 254.774 67.5588 273.291C50.1072 294.963 27.0879 309.383 5.98969 311.874C3.80823 312.151 1.69192 312.261 -0.391861 312.261ZM26.5996 204.677C-15.9225 204.677 -50.663 218.045 -53.9189 236.313C-57.1748 256.878 -41.6767 287.905 -20.7413 302.713C-13.8387 307.584 -4.81989 309.521 5.40365 308.331C25.3623 305.979 47.2746 292.112 64.075 271.27C77.9778 253.861 81.6243 236.451 74.1032 223.498C67.6565 212.399 53.3957 205.756 33.9905 204.787C31.516 204.732 29.0415 204.677 26.5996 204.677Z" fill="#CCCCCC"/>
<path d="M1.60012 298.477C-5.49775 298.477 -11.9444 296.733 -17.3492 293.329C-36.0706 281.51 -46.5872 257.735 -40.7917 240.325C-34.8985 223.109 -4.29306 212.758 28.8195 216.743C43.5036 218.598 54.2807 224.798 59.1645 234.208C64.6996 244.864 61.9646 258.371 51.6759 271.269C39.857 285.994 24.0008 295.737 8.17706 297.979C5.96305 298.311 3.74902 298.477 1.60012 298.477ZM-36.7218 241.321C-41.9964 257.126 -31.9682 279.628 -14.8421 290.45C-8.75361 294.297 -1.03711 295.681 7.49335 294.463C21.9821 292.388 37.2197 282.977 48.2247 269.276C57.6668 257.43 60.2389 245.196 55.3225 235.675C51.0573 227.427 41.4198 221.975 28.2334 220.314C-2.33949 216.605 -31.4798 226.043 -36.7218 241.321Z" fill="#CCCCCC"/>
<path d="M3.23514 285.138C-1.68127 285.138 -6.43489 284.058 -10.6024 281.733C-24.5377 274.067 -31.0495 257.792 -25.1563 245.475C-19.2306 233.214 1.90025 226.599 21.9892 230.75C31.2685 232.66 38.0408 237.338 41.0688 243.87C44.3898 251.066 42.6967 259.812 36.4453 267.839C27.8172 278.855 15.0215 285.138 3.23514 285.138ZM-8.32332 278.744C3.69096 285.359 22.1845 279.602 32.929 265.874C38.3989 258.844 39.9617 251.288 37.1291 245.198C34.6221 239.773 28.8916 235.871 20.9798 234.238C2.84442 230.501 -16.1049 236.148 -21.2492 246.831C-26.4261 257.654 -20.6306 271.963 -8.32332 278.744Z" fill="#CCCCCC"/>
<path d="M4.46058 272.045C1.79074 272.045 -0.814002 271.519 -3.19081 270.412C-11.3306 266.62 -14.619 257.901 -10.484 250.954C-6.41412 244.09 4.75359 240.796 14.3585 243.619C18.9819 244.976 22.368 247.688 23.8332 251.286C25.396 255.078 24.6472 259.507 21.7494 263.409C17.6144 268.917 10.9398 272.045 4.46058 272.045ZM7.06531 246.193C1.17213 246.193 -4.39547 248.602 -6.77227 252.587C-9.86538 257.818 -7.39092 264.406 -1.20471 267.257C4.94895 270.135 13.6422 267.533 18.1354 261.472C20.3819 258.455 20.968 255.272 19.7959 252.449C18.754 249.902 16.312 247.965 12.9259 246.969C11.0049 246.443 9.01885 246.193 7.06531 246.193Z" fill="#CCCCCC"/>
</svg>
