<svg width="313" height="26" viewBox="0 0 313 26" fill="none" xmlns="http://www.w3.org/2000/svg">
<path d="M292.788 13.5011C292.361 13.5225 291.93 13.5372 291.512 13.5692C291.24 13.5893 291.124 13.5305 290.943 13.4998C290.883 13.4891 290.818 13.4677 290.762 13.4704C290.339 13.4917 289.917 13.5158 289.494 13.5398C289.365 13.592 289.283 13.6614 289.085 13.6868C288.891 13.7109 288.662 13.7109 288.447 13.7229C288.162 13.7376 287.878 13.7523 287.593 13.7657C287.451 13.7723 287.334 13.7977 287.287 13.8458C287.278 13.8539 287.373 13.8739 287.425 13.8859C287.597 13.926 287.765 13.9714 287.955 14.0022C288.136 14.0316 288.361 13.9835 288.555 14.0209C288.99 14.1051 288.994 14.1037 289.326 14.0877C289.611 14.073 289.895 14.057 290.18 14.0463C290.236 14.0436 290.301 14.0636 290.361 14.0743C290.542 14.1037 290.658 14.1705 290.926 14.1451C291.128 14.1251 291.353 14.1211 291.564 14.1104C291.741 14.1492 291.904 14.1932 292.094 14.224C292.271 14.2534 292.323 14.2761 292.228 14.3148C292.142 14.3509 292.021 14.3656 291.861 14.3683C291.719 14.3696 291.577 14.3816 291.434 14.3883C291.361 14.3923 291.292 14.395 291.223 14.399C290.952 14.4137 290.952 14.4137 290.456 14.3282C290.262 14.2948 290.042 14.3416 289.857 14.3095C289.732 14.2881 289.624 14.2561 289.503 14.2333C289.451 14.224 289.369 14.2226 289.305 14.2253C289.089 14.2347 288.874 14.2413 288.667 14.2587C288.52 14.2707 288.434 14.3082 288.451 14.3456C288.455 14.3603 288.559 14.3817 288.619 14.383C288.757 14.3857 288.904 14.367 289.037 14.3763C289.167 14.3857 289.3 14.4124 289.395 14.4418C289.589 14.5032 289.809 14.4485 289.994 14.4645C290.188 14.4819 290.348 14.5353 290.533 14.5674C290.581 14.5754 290.671 14.562 290.745 14.558C290.956 14.5487 291.167 14.5407 291.378 14.5313C291.555 14.5701 291.745 14.6048 291.904 14.6489C292.193 14.7291 292.504 14.7598 292.879 14.721C293.09 14.6997 293.297 14.7077 293.465 14.7598C293.637 14.8132 293.836 14.8079 294.056 14.7972C294.258 14.7865 294.465 14.7571 294.672 14.7945C295.121 14.8774 295.125 14.8814 295.655 14.8493C295.815 14.84 295.935 14.8373 296.056 14.868C296.168 14.8961 296.289 14.9201 296.405 14.9469C296.617 14.9375 296.832 14.9282 297.043 14.9175C297.315 14.9028 297.466 14.9215 297.531 14.9963C297.569 15.0417 297.587 15.0832 297.681 15.1139C297.794 15.1513 297.914 15.15 298.078 15.1393C298.233 15.1299 298.345 15.1152 298.41 15.0671C298.436 15.0471 298.488 15.0284 298.535 15.0123C298.574 15.0003 298.634 14.9816 298.669 14.9843C298.733 14.9896 298.82 15.0043 298.841 15.0217C299.052 15.1834 299.052 15.1847 299.268 15.2315C299.505 15.2836 299.751 15.3304 299.966 15.3891C300.16 15.4413 300.354 15.4186 300.566 15.4186C300.725 15.4186 300.829 15.4533 300.816 15.488C300.807 15.5081 300.747 15.5375 300.695 15.5401C300.273 15.5669 299.846 15.5896 299.419 15.6083C299.367 15.611 299.303 15.5869 299.242 15.5749C299.121 15.5508 299.014 15.5134 298.884 15.5054C298.755 15.4974 298.604 15.5174 298.462 15.5241C298.32 15.5308 298.169 15.5482 298.039 15.5375C297.91 15.5268 297.806 15.488 297.686 15.4626C297.63 15.4506 297.552 15.4333 297.505 15.4373C297.19 15.4693 296.957 15.4252 296.733 15.3664C296.686 15.3544 296.604 15.3464 296.543 15.3491C296.043 15.3718 295.547 15.3985 295.047 15.4239C294.845 15.4346 294.681 15.3878 294.638 15.309C294.616 15.2649 294.573 15.2208 294.573 15.1767C294.573 15.0965 294.336 15.0524 294.163 15.0618C293.879 15.0751 293.59 15.0858 293.31 15.1059C293.081 15.1219 292.887 15.1059 292.732 15.0578C292.551 15.003 292.344 15.0137 292.137 15.0284C291.982 15.0391 291.939 15.0832 291.947 15.1941C291.956 15.2836 291.883 15.3116 291.603 15.3263C291.249 15.3451 290.891 15.3638 290.533 15.3785C290.477 15.3811 290.413 15.3584 290.357 15.3464C290.236 15.3223 290.128 15.2836 289.999 15.2756C289.869 15.2662 289.719 15.2863 289.576 15.2943C289.434 15.301 289.283 15.3197 289.154 15.3103C289.024 15.301 288.917 15.2609 288.8 15.2355C288.744 15.2235 288.675 15.2061 288.619 15.2088C288.335 15.2194 288.05 15.2355 287.766 15.2502C287.446 15.2662 287.446 15.2662 286.994 15.1834C286.787 15.146 286.58 15.1754 286.377 15.1861C286.162 15.1967 285.959 15.2021 285.791 15.1486C285.679 15.1139 285.554 15.0925 285.42 15.0992C285.062 15.1152 284.709 15.1353 284.351 15.1513C284.291 15.154 284.209 15.1473 284.161 15.1353C283.933 15.0792 283.709 15.0351 283.39 15.0631C283.114 15.0872 282.816 15.0885 282.54 15.1112C282.389 15.1232 282.32 15.166 282.35 15.1994C282.368 15.2168 282.458 15.2368 282.519 15.2368C282.657 15.2382 282.808 15.2181 282.937 15.2261C283.204 15.2422 283.338 15.3544 283.687 15.3237C283.894 15.305 284.11 15.2983 284.325 15.2929C284.381 15.2916 284.441 15.317 284.502 15.3304C284.674 15.3664 284.825 15.4132 285.075 15.3891C285.282 15.3704 285.502 15.3651 285.713 15.3544C286.05 15.337 286.05 15.3384 286.485 15.4199C286.692 15.4586 286.899 15.4279 287.102 15.4186C287.252 15.4119 287.395 15.3985 287.515 15.4172C287.701 15.4453 287.834 15.5094 288.063 15.5054C288.279 15.5014 288.49 15.4827 288.705 15.476C288.839 15.472 288.964 15.4934 289.072 15.5295C289.184 15.5655 289.305 15.5816 289.451 15.5735C289.662 15.5629 289.878 15.5495 290.094 15.5428C290.154 15.5415 290.223 15.5535 290.279 15.5642C290.4 15.5882 290.516 15.6163 290.632 15.6417C290.844 15.6337 291.059 15.631 291.266 15.615C291.426 15.6029 291.538 15.6083 291.667 15.635C291.831 15.6711 291.965 15.7352 292.232 15.7045C292.366 15.6898 292.521 15.6938 292.655 15.6804C292.818 15.6631 292.93 15.6698 293.047 15.7098C293.267 15.786 293.543 15.7873 293.827 15.7579C294.138 15.7259 294.37 15.7633 294.603 15.8221C294.849 15.8836 294.849 15.8822 295.039 16.0305C295.095 16.0733 295.254 16.0933 295.388 16.0853C295.612 16.072 295.806 16.0786 295.97 16.1294C296.142 16.1842 296.349 16.1775 296.56 16.1628C296.841 16.1428 297.121 16.1254 297.349 16.2029C297.462 16.2403 297.582 16.2497 297.733 16.2403C298.16 16.2163 298.591 16.2016 299.009 16.1722C299.264 16.1535 299.41 16.1962 299.583 16.2323C299.816 16.2817 300.07 16.3258 300.07 16.4314C300.07 16.4488 300.13 16.4688 300.182 16.4822C300.294 16.5102 300.415 16.5343 300.531 16.561C300.704 16.6011 300.872 16.6345 301.109 16.6131C301.316 16.5957 301.536 16.5904 301.747 16.5784C301.958 16.5663 302.152 16.5597 302.342 16.6104C302.562 16.6679 302.795 16.7227 303.045 16.7654C303.221 16.7962 303.454 16.7441 303.644 16.7855C303.76 16.8109 303.872 16.8403 303.997 16.8616C304.049 16.871 304.131 16.8643 304.2 16.8616C304.342 16.8563 304.489 16.8523 304.627 16.8389C304.787 16.8242 304.907 16.8269 305.028 16.8577C305.14 16.8857 305.252 16.9245 305.381 16.9325C305.575 16.9445 305.791 16.8911 305.985 16.9525C306.084 16.9832 306.209 17.0126 306.339 17.022C306.468 17.0314 306.619 17.0113 306.757 17.0126C306.817 17.0126 306.89 17.034 306.925 17.0514C306.946 17.0607 306.916 17.0861 306.886 17.0995C306.847 17.1155 306.791 17.1369 306.735 17.1396C306.308 17.1636 305.882 17.1837 305.455 17.2064C305.2 17.2198 305.2 17.2198 304.687 17.1356C304.567 17.1155 304.433 17.1195 304.282 17.1289C304.079 17.1409 303.873 17.1636 303.661 17.1396C303.385 17.0487 303.045 17.0407 302.683 17.0754C302.532 17.0901 302.394 17.0901 302.282 17.0648C302.044 17.014 301.794 16.9672 301.583 16.9071C301.419 16.8603 301.342 16.8563 301.273 16.9204C301.251 16.9405 301.23 16.9619 301.234 16.9806C301.26 17.0474 301.307 17.1129 301.333 17.1797C301.342 17.1984 301.307 17.2198 301.286 17.2398C301.217 17.2959 301.126 17.2919 300.975 17.2451C300.824 17.1984 300.643 17.1676 300.402 17.189C300.195 17.2077 299.971 17.2051 299.764 17.2251C299.445 17.2545 299.221 17.2117 298.992 17.1543C298.945 17.1423 298.863 17.1356 298.802 17.1383C298.16 17.169 297.522 17.2037 296.88 17.2345C296.742 17.2411 296.617 17.2211 296.509 17.185C296.397 17.1489 296.272 17.1302 296.134 17.1369C295.565 17.165 294.996 17.1904 294.426 17.2251C294.194 17.2398 294.008 17.2224 293.849 17.1757C293.728 17.1409 293.616 17.1302 293.465 17.1342C293.301 17.1382 293.185 17.1516 293.103 17.1904C293.025 17.2278 293.081 17.2505 293.254 17.2799C293.439 17.3119 293.612 17.3534 293.788 17.3908C293.931 17.3855 294.073 17.3747 294.211 17.3761C294.271 17.3761 294.327 17.4001 294.388 17.4135C294.56 17.4523 294.72 17.491 294.965 17.4696C295.172 17.4509 295.392 17.4469 295.603 17.4349C295.897 17.4202 295.897 17.4202 296.371 17.5044C296.492 17.5257 296.621 17.5244 296.776 17.5124C296.91 17.503 297.048 17.5217 297.143 17.5618C297.181 17.5779 297.168 17.6046 297.087 17.6928C297.087 17.7583 297.177 17.7289 297.207 17.6861C297.255 17.6246 297.164 17.6046 296.992 17.638C296.871 17.662 296.811 17.6968 296.841 17.7248C296.858 17.7395 296.94 17.7583 297.087 17.6928C297.466 17.6126 297.755 17.6032 298.031 17.5819C298.195 17.5698 298.298 17.5752 298.427 17.6099C298.583 17.6513 298.738 17.6954 298.992 17.6741C299.268 17.65 299.561 17.6473 299.841 17.6273C300.1 17.6086 300.234 17.6674 300.398 17.7021C300.596 17.7435 300.816 17.6968 300.997 17.7208C301.187 17.7449 301.32 17.8037 301.54 17.8144C301.859 17.7783 302.062 17.8451 302.303 17.8892C302.493 17.9226 302.717 17.8932 302.92 17.8785C303.148 17.8625 303.338 17.8772 303.497 17.9253C303.678 17.9801 303.881 17.968 304.088 17.956C304.571 17.9293 304.588 17.9253 304.868 17.9988C305.071 18.0522 305.265 18.0282 305.468 18.0215C305.644 18.0576 305.817 18.0963 306.002 18.1284C306.05 18.1364 306.14 18.123 306.214 18.119C306.425 18.1083 306.64 18.0976 306.852 18.087C306.994 18.0803 307.145 18.0602 307.274 18.0682C307.403 18.0776 307.511 18.1164 307.628 18.1417C307.744 18.1671 307.865 18.1925 307.977 18.2192C308.149 18.2593 308.313 18.2927 308.555 18.2727C308.761 18.2553 308.977 18.25 309.193 18.2379C309.464 18.2232 309.456 18.2273 309.96 18.3074C310.232 18.3515 310.512 18.2981 310.788 18.2927C310.926 18.2901 311.059 18.3048 311.154 18.3435C311.193 18.3595 311.18 18.3863 311.193 18.409C310.482 18.4451 309.766 18.4758 309.063 18.5199C308.792 18.5373 308.649 18.4891 308.503 18.4491C308.261 18.3849 307.942 18.4785 307.714 18.3956C307.576 18.3462 307.378 18.3181 307.14 18.3422C307.002 18.3555 306.856 18.3542 306.714 18.3662C306.351 18.3956 306.019 18.397 305.731 18.3048C305.631 18.2727 305.489 18.2553 305.386 18.2246C305.265 18.1912 305.149 18.1725 305.006 18.1791C304.364 18.2112 303.726 18.2433 303.088 18.278C303.032 18.2807 302.976 18.3007 302.928 18.3154C302.808 18.3529 302.846 18.3823 303.04 18.4063C303.105 18.4143 303.157 18.4317 303.217 18.445C303.334 18.4704 303.441 18.5105 303.571 18.5199C303.7 18.5292 303.851 18.5105 303.993 18.5039C304.136 18.4972 304.286 18.4771 304.416 18.4851C304.545 18.4945 304.653 18.5333 304.774 18.5573C304.83 18.5693 304.899 18.5894 304.955 18.588C305.239 18.58 305.519 18.5653 305.804 18.5533C305.981 18.5894 306.132 18.6415 306.343 18.6535C306.477 18.6615 306.619 18.6468 306.757 18.6495C306.817 18.6508 306.895 18.6709 306.925 18.6882C306.942 18.6989 306.886 18.7257 306.843 18.739C306.679 18.7898 306.455 18.7804 306.252 18.7965C306.033 18.8138 305.834 18.8085 305.666 18.7564C305.554 18.7217 305.429 18.7029 305.291 18.7096C304.933 18.727 304.579 18.747 304.222 18.7617C304.161 18.7644 304.088 18.7524 304.032 18.743C303.579 18.6615 303.579 18.6589 303.26 18.6762C302.79 18.7016 302.79 18.7016 302.476 18.6308C302.415 18.6174 302.351 18.592 302.299 18.5934C301.799 18.6148 301.303 18.6361 300.807 18.6669C300.643 18.6762 300.531 18.6762 300.411 18.6415C300.307 18.6121 300.186 18.5787 300.057 18.5707C299.923 18.5626 299.777 18.5827 299.634 18.5894C299.492 18.5961 299.341 18.6134 299.216 18.6027C299.087 18.592 298.975 18.5546 298.863 18.5279C298.746 18.4998 298.621 18.5012 298.462 18.5119C297.97 18.5426 297.966 18.5386 297.479 18.4557C297.423 18.4464 297.35 18.4357 297.289 18.4384C296.931 18.4544 296.578 18.4745 296.22 18.4905C296.082 18.4972 295.948 18.4798 295.853 18.4411C295.815 18.425 295.828 18.3983 295.802 18.3462C295.772 18.3341 295.806 18.3555 295.815 18.3756C295.879 18.3729 295.957 18.3756 296.004 18.3649C296.125 18.3395 296.185 18.3061 296.155 18.278C296.138 18.2633 296.056 18.2446 296.004 18.2446C295.91 18.2446 295.828 18.274 295.802 18.3462C295.53 18.3903 295.241 18.3996 294.961 18.421C294.797 18.4344 294.694 18.4277 294.564 18.393C294.409 18.3502 294.25 18.3088 293.995 18.3301C293.719 18.3542 293.426 18.3582 293.142 18.3769C292.814 18.3983 292.672 18.278 292.396 18.2807C292.111 18.2834 291.827 18.3061 291.542 18.3221C291.292 18.3355 291.292 18.3355 290.775 18.2486C290.585 18.2166 290.361 18.2633 290.176 18.2299C290.051 18.2085 289.943 18.1765 289.822 18.1538C289.77 18.1444 289.688 18.1444 289.624 18.1471C289.266 18.1631 288.904 18.1738 288.559 18.2032C288.167 18.2379 287.869 18.2005 287.589 18.1217C287.235 18.1364 286.877 18.1444 286.528 18.1698C286.274 18.1885 286.127 18.1444 285.955 18.1083C285.894 18.0963 285.843 18.0763 285.778 18.0709C285.713 18.0656 285.636 18.0763 285.567 18.0803C285.282 18.095 284.989 18.1017 284.713 18.1257C284.372 18.1564 284.243 18.0469 283.98 18.0335C283.803 18.099 283.709 18.1885 283.359 18.1952C283.075 18.2005 282.79 18.2219 282.506 18.2366C282.363 18.2433 282.221 18.2513 282.079 18.258C281.85 18.27 281.743 18.3221 281.79 18.4023C281.816 18.4464 281.837 18.4905 281.859 18.5346C281.902 18.6134 281.794 18.6802 281.613 18.6896C281.113 18.715 280.617 18.7417 280.117 18.7644C279.984 18.7711 279.854 18.7484 279.746 18.7123C279.634 18.6762 279.509 18.6602 279.371 18.6669C278.871 18.6923 278.376 18.719 277.875 18.7417C277.819 18.7444 277.746 18.731 277.69 18.7203C277.569 18.6963 277.453 18.6682 277.337 18.6428C277.052 18.6548 276.772 18.6628 276.492 18.6789C276.039 18.7029 276.039 18.7043 275.707 18.6308C275.646 18.6174 275.586 18.592 275.53 18.5934C275.315 18.5987 275.103 18.6121 274.888 18.6241C274.254 18.6589 274.254 18.6588 274.069 18.6188C273.9 18.5813 273.749 18.5359 273.495 18.5573C273.219 18.5814 272.926 18.5894 272.641 18.6027C272.43 18.6121 272.219 18.6228 272.008 18.6255C271.952 18.6268 271.891 18.6014 271.831 18.588C271.659 18.5466 271.49 18.5132 271.253 18.5359C271.115 18.5493 270.969 18.552 270.826 18.5586C270.456 18.5773 270.456 18.5773 269.848 18.4972C269.787 18.4891 269.714 18.4798 269.654 18.4838C269.154 18.5079 268.658 18.5346 268.158 18.5573C268.097 18.56 268.024 18.5519 267.964 18.5453C267.283 18.4678 267.283 18.4678 266.558 18.5052C266.282 18.5185 266.274 18.5239 265.985 18.4531C265.856 18.4223 265.748 18.4076 265.597 18.417C265.028 18.4491 264.454 18.4704 263.89 18.5079C263.635 18.5239 263.489 18.4838 263.316 18.4477C263.256 18.4357 263.191 18.409 263.139 18.4103C262.57 18.4357 262.001 18.4664 261.432 18.4918C261.38 18.4945 261.316 18.4678 261.255 18.4557C261.139 18.4317 261.027 18.3956 260.898 18.3876C260.764 18.3796 260.617 18.3996 260.471 18.4063C260.113 18.4237 260.113 18.4223 259.699 18.3435C259.643 18.3328 259.57 18.3181 259.514 18.3208C258.945 18.3475 258.371 18.3702 257.806 18.409C257.483 18.4304 257.263 18.3916 257.035 18.3355C256.987 18.3235 256.905 18.3181 256.845 18.3208C256.203 18.3515 255.565 18.3863 254.922 18.417C254.788 18.4237 254.659 18.401 254.551 18.3662C254.379 18.3114 254.176 18.3181 253.961 18.3301C253.465 18.3582 253.461 18.3569 253.167 18.2927C253.107 18.2794 253.055 18.262 252.991 18.2553C252.93 18.2486 252.853 18.2526 252.788 18.2553C252.504 18.2687 252.219 18.2834 251.934 18.2981C251.65 18.3128 251.361 18.3208 251.081 18.3435C250.736 18.3716 250.572 18.2847 250.331 18.2446C249.977 18.262 249.615 18.2727 249.266 18.3007C248.998 18.3221 248.873 18.2633 248.697 18.2326C248.636 18.2219 248.572 18.1992 248.516 18.2019C247.873 18.2313 247.231 18.2633 246.593 18.2994C246.438 18.3074 246.334 18.2967 246.205 18.2647C245.916 18.1925 245.903 18.1952 245.42 18.2219C245.209 18.2339 245.006 18.2446 244.825 18.1898C244.666 18.1404 244.472 18.1284 244.243 18.1444C243.963 18.1644 243.674 18.1751 243.389 18.1885C243.105 18.2032 242.82 18.2232 242.536 18.2299C242.307 18.2366 242.169 18.1738 241.988 18.1417C241.932 18.1324 241.855 18.131 241.79 18.1337C241.505 18.1457 241.212 18.1551 240.936 18.1778C240.6 18.2059 240.415 18.1324 240.178 18.0896C240.126 18.0803 240.04 18.0856 239.975 18.0896C239.475 18.1137 238.979 18.1404 238.479 18.1658C238.302 18.1297 238.121 18.095 237.944 18.0589C237.66 18.0723 237.375 18.087 237.091 18.1003C236.875 18.111 236.655 18.115 236.453 18.1351C236.19 18.1618 236.06 18.099 235.883 18.0682C235.823 18.0576 235.758 18.0348 235.702 18.0375C235.345 18.0522 234.987 18.0683 234.633 18.091C234.297 18.1137 234.163 17.9934 233.887 17.9947C233.603 17.9961 233.31 18.0135 233.034 18.0375C232.715 18.0656 232.49 18.0228 232.262 17.9654C232.215 17.9533 232.133 17.9466 232.072 17.9493C231.714 17.9654 231.361 17.9854 231.003 18.0014C230.943 18.0041 230.87 17.9974 230.809 17.9894C230.128 17.9106 230.128 17.9092 229.83 17.9253C229.619 17.936 229.404 17.9493 229.188 17.956C229.128 17.9587 229.054 17.9467 228.998 17.936C228.55 17.8545 228.55 17.8531 228.227 17.8692C227.942 17.8839 227.658 17.8985 227.373 17.9132C227.196 17.8772 227.015 17.8424 226.838 17.8064C226.485 17.8237 226.123 17.8371 225.773 17.8611C225.61 17.8718 225.502 17.8678 225.377 17.8344C225.222 17.7943 225.066 17.7476 224.808 17.7703C224.532 17.7943 224.239 17.797 223.958 17.817C223.622 17.8411 223.484 17.7195 223.213 17.7208C222.928 17.7222 222.635 17.7395 222.359 17.7636C222.04 17.7916 221.816 17.7489 221.587 17.6914C221.54 17.6794 221.458 17.6727 221.398 17.6754C220.613 17.7142 219.833 17.7529 219.048 17.7943C218.565 17.8197 218.565 17.821 217.647 17.7476C217.582 17.7422 217.513 17.7369 217.448 17.7395C217.164 17.7516 216.871 17.7609 216.595 17.7836C216.258 17.8117 216.073 17.7395 215.836 17.6954C215.784 17.6861 215.702 17.6914 215.633 17.6941C215.418 17.7035 215.207 17.7155 214.991 17.7262C214.706 17.7409 214.422 17.7556 214.137 17.7703C213.961 17.7355 213.779 17.6994 213.603 17.6647C213.249 17.6821 212.887 17.6914 212.538 17.7195C212.271 17.7409 212.145 17.6848 211.969 17.6527C211.908 17.642 211.844 17.6193 211.788 17.6206C211.145 17.65 210.503 17.6807 209.865 17.7182C209.602 17.7342 209.481 17.6741 209.304 17.6433C209.244 17.634 209.175 17.6166 209.119 17.6193C208.692 17.638 208.265 17.6607 207.839 17.6834C207.597 17.6968 207.597 17.6968 207.071 17.6139C207.011 17.6046 206.942 17.5952 206.882 17.5979C205.528 17.6647 204.178 17.7355 202.825 17.8023C202.687 17.809 202.562 17.789 202.454 17.7529C202.342 17.7168 202.217 17.6981 202.079 17.7048C201.51 17.7329 200.936 17.7583 200.371 17.793C200.139 17.8077 199.953 17.7903 199.794 17.7435C199.673 17.7088 199.561 17.6954 199.41 17.7035C199.125 17.7195 198.841 17.7329 198.556 17.7476C198.272 17.7623 197.987 17.777 197.703 17.7917C197.418 17.8064 197.129 17.8144 196.849 17.8371C196.504 17.8651 196.336 17.7823 196.099 17.7409C195.672 17.7609 195.245 17.781 194.823 17.8023C194.254 17.8304 193.685 17.8611 193.115 17.8879C193.064 17.8905 192.999 17.8665 192.939 17.8545C192.762 17.8211 192.633 17.7743 192.37 17.789C191.093 17.8598 189.809 17.9199 188.528 17.9894C188.261 18.0041 188.145 17.9466 187.964 17.9159C187.903 17.9066 187.834 17.8879 187.778 17.8905C187.067 17.9239 186.355 17.9613 185.644 17.9974C185.355 18.0121 185.355 18.0121 184.872 17.9293C184.816 17.9199 184.743 17.9079 184.683 17.9106C183.756 17.956 182.833 18.0041 181.906 18.0509C181.768 18.0576 181.643 18.0389 181.531 18.0028C181.423 17.9667 181.294 17.9467 181.16 17.9533C180.307 17.9961 179.449 18.0375 178.599 18.0843C178.371 18.0976 178.181 18.0856 178.017 18.0375C177.901 18.0028 177.785 17.9881 177.638 17.9961C176.358 18.0616 175.077 18.1244 173.797 18.1939C173.551 18.2072 173.378 18.1818 173.223 18.1377C173.098 18.103 172.99 18.0963 172.835 18.1017C172.671 18.1083 172.572 18.123 172.482 18.1631C172.365 18.2152 172.292 18.2807 172.016 18.2847C171.732 18.2887 171.443 18.3048 171.162 18.3275C170.895 18.3502 170.77 18.2901 170.602 18.254C170.477 18.2286 170.361 18.2246 170.201 18.2366C170.054 18.2473 169.964 18.27 169.878 18.3128C169.688 18.4036 169.671 18.4036 169.438 18.3462C169.313 18.3154 169.201 18.2914 169.063 18.2967C168.494 18.3235 167.925 18.3529 167.356 18.3836C167.028 18.401 167.024 18.4036 166.778 18.3368C166.657 18.3034 166.541 18.2874 166.398 18.2954C164.833 18.3756 163.268 18.4531 161.703 18.5373C161.462 18.5506 161.298 18.5226 161.126 18.4825C161.07 18.4691 161.014 18.4504 160.949 18.445C160.884 18.4397 160.811 18.4451 160.742 18.4477C159.604 18.5052 158.461 18.56 157.327 18.6241C157.069 18.6388 156.931 18.5961 156.754 18.5613C156.694 18.5493 156.642 18.5306 156.577 18.5252C156.513 18.5212 156.435 18.5306 156.366 18.5346C155.228 18.592 154.085 18.6468 152.952 18.711C152.68 18.7257 152.564 18.6695 152.387 18.6401C152.326 18.6295 152.262 18.6094 152.206 18.6121C151.848 18.6268 151.494 18.6468 151.137 18.6642C150.283 18.7083 149.429 18.7497 148.576 18.7952C148.248 18.8125 148.106 18.6936 147.83 18.6989C147.472 18.7056 147.118 18.7323 146.761 18.751C146.476 18.7657 146.191 18.7791 145.907 18.7952C145.627 18.8098 145.627 18.8098 144.928 18.7323C144.868 18.7257 144.795 18.7163 144.734 18.719C143.738 18.7684 142.738 18.8179 141.747 18.8713C141.518 18.8833 141.328 18.8767 141.164 18.8272C141.048 18.7925 140.927 18.7751 140.785 18.7831C139.289 18.8593 137.797 18.9354 136.301 19.0103C136.245 19.013 136.172 18.9996 136.116 18.9889C135.995 18.9648 135.879 18.9368 135.762 18.9114C135.676 18.9421 135.564 18.9702 135.508 19.0049C135.431 19.0517 135.327 19.0651 135.163 19.0731C134.999 19.0811 134.896 19.0784 134.767 19.0437C134.611 19.0009 134.452 18.9675 134.197 18.9809C132.632 19.0651 131.067 19.1412 129.502 19.2241C129.244 19.2374 129.123 19.1786 128.942 19.1479C128.882 19.1385 128.813 19.1239 128.757 19.1265C128.114 19.1573 127.476 19.1907 126.834 19.2227C125.053 19.3136 123.273 19.4005 121.496 19.4967C121.173 19.514 120.953 19.4806 120.725 19.4232C120.677 19.4111 120.595 19.4045 120.535 19.4071C118.043 19.5327 115.551 19.6597 113.064 19.7866C112.93 19.7933 112.8 19.7719 112.693 19.7372C112.581 19.7011 112.456 19.6837 112.318 19.6904C111.179 19.7479 110.041 19.8053 108.903 19.8641C108.619 19.8788 108.614 19.8801 108.321 19.816C108.261 19.8026 108.196 19.7773 108.149 19.7799C108.05 19.7866 107.955 19.82 107.886 19.8654C107.817 19.9135 107.709 19.9269 107.549 19.9363C107.386 19.9456 107.278 19.9416 107.153 19.9095C106.993 19.8695 106.847 19.8307 106.588 19.8441C103.316 20.0151 100.043 20.1794 96.7711 20.3491C96.5082 20.3625 96.3874 20.3064 96.2063 20.2757C96.146 20.2663 96.0857 20.2529 96.021 20.2503C95.952 20.2476 95.8787 20.2556 95.8097 20.2596C90.4724 20.5309 85.135 20.8035 79.7977 21.0747C79.4786 21.0907 79.4829 21.0907 79.1337 21.2137C79.0906 21.2284 79.0345 21.2484 78.9741 21.2511C77.3402 21.3366 75.7019 21.4194 74.0636 21.5023C73.3523 21.5384 72.6409 21.5758 71.9296 21.6105C71.6752 21.6226 71.6752 21.6226 71.0673 21.7669C71.0156 21.7789 70.9551 21.7949 70.8948 21.7976C68.0493 21.9433 65.2039 22.0889 62.3541 22.2319C62.1299 22.2426 61.9489 22.2666 61.8454 22.3307C61.7721 22.3762 61.6773 22.4029 61.535 22.4109C59.5432 22.5125 57.5514 22.6154 55.5553 22.7142C55.3182 22.7263 55.1758 22.7637 55.0594 22.8198C55.0206 22.8385 54.9861 22.8599 54.9301 22.8732C54.8783 22.8853 54.8008 22.8893 54.7361 22.8933C53.0288 22.9801 51.3216 23.0697 49.61 23.1525C49.3557 23.1645 49.2521 23.214 49.1271 23.2661C49.084 23.2835 49.0538 23.3075 48.9977 23.3195C48.9417 23.3302 48.8598 23.3302 48.7908 23.3329C47.3681 23.4051 45.9454 23.4785 44.5227 23.5507C44.2468 23.544 44.1864 23.6215 44.0527 23.6683C44.0053 23.6843 43.9709 23.7057 43.9148 23.7164C43.8545 23.7271 43.7768 23.7257 43.7035 23.7284C42.5653 23.7859 41.4271 23.8473 40.2846 23.9008C40.0217 23.9128 39.9699 23.981 39.8276 24.0277C39.7802 24.0424 39.7328 24.0651 39.6768 24.0692C38.9654 24.1079 38.2541 24.144 37.5427 24.1787C37.3056 24.1907 37.3056 24.1894 36.8874 24.3217C36.84 24.3364 36.7839 24.3524 36.7235 24.3564C35.6586 24.4126 34.5895 24.466 33.5203 24.5208C33.3823 24.5275 33.2875 24.5595 33.2185 24.605C33.1495 24.6504 33.0504 24.6798 32.9124 24.6865C32.0588 24.7306 31.2051 24.776 30.3514 24.8161C30.1143 24.8268 29.9591 24.8602 29.8557 24.9203C29.7781 24.9657 29.6832 24.9885 29.5323 24.9965C28.6787 25.0392 27.8251 25.086 26.9671 25.1234C26.7171 25.1341 26.5877 25.1795 26.4842 25.2357C26.4023 25.2811 26.3074 25.2971 26.1479 25.3051C24.5829 25.3826 23.0137 25.4601 21.453 25.5457C21.19 25.5604 21.0563 25.5136 20.8839 25.4802C20.6381 25.4334 20.4097 25.3826 20.4097 25.2784C20.4097 25.2624 20.3364 25.2437 20.2846 25.2303C19.9009 25.1301 19.9009 25.1301 19.8406 25.0232C19.8061 24.9577 19.7673 24.8909 19.7371 24.8241C19.681 24.7145 19.543 24.6865 19.1464 24.7065C19.0041 24.7132 18.8619 24.7226 18.7196 24.7279C18.5083 24.7372 18.3488 24.6932 18.31 24.613C18.2885 24.5689 18.2626 24.5248 18.2411 24.4807C18.4566 24.47 18.4523 24.4687 18.8317 24.307C18.9912 24.2389 18.9913 24.2389 18.6852 24.1707C18.5688 24.1453 18.4566 24.1172 18.3316 24.0932C18.2756 24.0825 18.2023 24.0758 18.1419 24.0785C17.7841 24.0945 17.4306 24.1132 17.0771 24.132C16.508 24.1613 16.5079 24.1613 15.9302 24.025C15.8828 24.0144 15.8095 23.9943 15.8181 23.9836C15.8655 23.9342 15.9819 23.9128 16.1285 23.9075C16.3441 23.8994 16.5553 23.8861 16.7666 23.8754C16.9088 23.8687 17.0511 23.8607 17.1934 23.854C17.327 23.8033 17.465 23.7538 17.5901 23.7017C17.7884 23.6215 17.7883 23.6188 17.5167 23.5627C17.3443 23.5253 17.1589 23.4919 16.9821 23.4572C16.7709 23.4679 16.5553 23.4799 16.3441 23.4892C16.0768 23.5013 15.969 23.4759 15.9 23.389C15.8396 23.3129 15.9129 23.2474 16.1199 23.2313C16.3311 23.2153 16.5295 23.2046 16.6373 23.1365C16.7408 23.071 16.9218 23.0456 17.146 23.0403C17.2883 23.0363 17.4305 23.0269 17.5728 23.0189C17.7582 23.0082 17.8574 22.9401 17.8186 22.8639C17.797 22.8145 17.7539 22.773 17.5858 22.7623C16.8399 22.7156 16.8312 22.7169 16.4605 22.626C16.426 22.618 16.4002 22.594 16.4131 22.582C16.4347 22.5619 16.4821 22.5325 16.5338 22.5285C17.0296 22.4991 17.5254 22.4724 18.0212 22.4523C18.185 22.4457 18.3058 22.4363 18.3618 22.3869C18.4394 22.3187 18.4049 22.2559 18.254 22.2091C18.2066 22.1945 18.1289 22.1757 18.0772 22.1771C17.5081 22.2011 16.9434 22.2319 16.3743 22.2559C16.3225 22.2586 16.2277 22.2359 16.2062 22.2185C16.1631 22.1864 16.2277 22.1437 16.3786 22.129C16.5769 22.1089 16.7795 22.1076 16.9132 22.0408C17.0986 21.9459 17.327 21.8591 17.534 21.7682C17.5685 21.7522 17.6246 21.7214 17.6117 21.7188C17.5039 21.6894 17.3788 21.6666 17.2667 21.6386C17.077 21.5918 17.077 21.5264 17.1201 21.4636C17.1546 21.4128 17.2839 21.3927 17.4435 21.3927C17.5124 21.3927 17.5987 21.3927 17.6547 21.3807C17.8013 21.3513 17.8487 21.3139 17.7754 21.2858C17.7323 21.2698 17.6548 21.2471 17.603 21.2498C16.6804 21.2939 15.7534 21.3366 14.8351 21.3914C14.5635 21.4074 14.4385 21.3566 14.2747 21.3206C14.1497 21.2925 14.0332 21.2818 13.878 21.3019C13.7314 21.3206 13.5892 21.3099 13.4987 21.2658C13.4254 21.2297 13.5547 21.199 13.9039 21.1642C13.9686 21.1576 14.0418 21.1535 14.0893 21.1402C14.5894 20.9959 14.5894 20.9945 14.9343 20.9758C15.2705 20.9585 15.2706 20.9571 15.4474 20.8796C15.5293 20.8436 15.6198 20.8075 15.6974 20.7701C15.7275 20.7554 15.7793 20.7286 15.7621 20.7206C15.6672 20.6792 15.5379 20.6698 15.387 20.6792C15.0507 20.7019 14.6541 20.6832 14.4773 20.8101C14.4084 20.8582 14.3006 20.8716 14.1454 20.8796C12.5847 20.9571 11.0239 21.04 9.45894 21.1148C9.20457 21.1268 9.08824 21.1763 8.98908 21.2311C8.90285 21.2765 8.80798 21.2898 8.64415 21.2979C8.48032 21.3059 8.35092 21.3099 8.25607 21.2658C8.20003 21.2391 8.24746 21.2017 8.3768 21.1642C8.56219 21.1108 8.52768 21.044 8.46732 20.9812C8.42421 20.9398 8.29056 20.9104 8.14829 20.913C7.93704 20.9184 7.73446 20.9331 7.5577 20.8796C7.45423 20.8489 7.32487 20.8275 7.20846 20.8008C6.98427 20.746 6.76008 20.6899 6.44535 20.726C6.22979 20.7126 6.07889 20.6645 5.90644 20.6271C5.61759 20.5656 5.59172 20.5563 5.79866 20.4908C6.03147 20.4173 5.85036 20.3211 5.9797 20.2489C6.11766 20.1714 6.30742 20.1033 6.47556 20.0311C6.51868 20.0124 6.55749 19.9951 6.60061 19.9764C6.50145 19.9496 6.41093 19.9162 6.29452 19.8975C6.14363 19.8735 6.06602 19.8441 6.07464 19.7612C6.04446 19.7492 6.05731 19.7799 6.0918 19.7879C6.1306 19.796 6.22552 19.7893 6.27294 19.7799C6.39366 19.7545 6.45396 19.7211 6.42378 19.6931C6.40653 19.6784 6.32468 19.6597 6.27294 19.6597C6.1781 19.6597 6.09619 19.6891 6.07033 19.7612C5.58746 19.816 5.08727 19.8427 4.58716 19.8641C4.53543 19.8668 4.4708 19.8401 4.41044 19.8267C4.21212 19.7813 4.21209 19.7826 3.63007 19.7692C3.56971 19.7679 3.48784 19.7492 3.45766 19.7305C3.33263 19.649 3.33698 19.5595 3.27662 19.4726C3.38871 19.4165 3.50072 19.3617 3.61712 19.3069C3.84993 19.196 4.15179 19.0985 4.33287 18.9769C4.29406 18.9114 4.24232 18.8459 4.43202 18.7925C4.97093 18.7257 4.96665 18.7257 5.11323 18.6615C5.53143 18.4798 5.94529 18.2967 6.38073 18.1177C6.49713 18.0709 6.49715 18.0455 6.29021 18.0255C6.22554 18.0201 6.15646 18.0188 6.08748 18.0215C5.87192 18.0308 5.65636 18.0549 5.44511 18.0495C5.23385 18.0455 5.07865 17.9867 4.90619 17.9507C4.72943 17.9132 4.55268 17.8745 4.37592 17.8357C4.17328 17.8398 3.97069 17.8772 3.76806 17.817C3.61285 17.7703 3.41886 17.7369 3.2421 17.6981C3.37575 17.5966 3.62584 17.5191 3.81985 17.4295C3.99661 17.348 4.00082 17.3494 4.47507 17.2866C4.69925 17.2572 4.77686 17.1062 4.58716 17.0621C4.35867 17.0086 4.11728 16.9592 3.88447 16.9084C3.68184 16.9124 3.47494 16.9485 3.28094 16.8884C3.13004 16.8429 2.95756 16.8122 2.7075 16.8296C2.285 16.859 1.85388 16.8737 1.42706 16.8977C1.28048 16.9057 1.12091 16.9004 1.05624 16.855C1.01313 16.8229 1.13817 16.7788 1.28044 16.7695C1.496 16.7561 1.68999 16.7401 1.79777 16.6733C1.90124 16.6064 2.09092 16.5864 2.31511 16.577C2.37546 16.5744 2.4445 16.5583 2.47467 16.5423C2.62988 16.4648 2.80235 16.398 3.13431 16.4007C3.27228 16.3739 3.34552 16.3405 3.30241 16.3085C3.27654 16.2911 3.18605 16.2684 3.13431 16.2711C2.77648 16.2844 2.41865 16.2978 2.06944 16.3218C1.90561 16.3325 1.78052 16.3352 1.67704 16.2951C1.60375 16.2684 1.64255 16.2323 1.78051 16.1935C1.90123 16.1601 1.93576 16.1214 1.92713 16.076C1.90558 15.9704 1.77621 15.9397 1.36233 15.9463C1.06485 15.9517 0.991554 15.9343 0.926885 15.8435C0.90964 15.8221 0.866602 15.7927 0.896782 15.778C1.08217 15.6871 1.20289 15.5749 1.55211 15.5321C1.69007 15.5161 1.83659 15.5161 1.92282 15.4814C2.00904 15.4466 2.08668 15.4065 2.17722 15.3731C2.28931 15.333 2.36684 15.2956 2.31511 15.2702C2.22888 15.2248 2.09097 15.2208 1.93145 15.2368C1.79349 15.2502 1.64691 15.2515 1.50464 15.2595C1.25027 15.2742 1.04337 15.2395 1.01319 15.1807C0.93128 15.0257 0.845029 14.872 0.771737 14.717C0.763115 14.6983 0.784612 14.6743 0.819103 14.6582C0.939819 14.6021 1.06921 14.5487 1.19424 14.4939C1.34082 14.4311 1.57367 14.4431 1.77199 14.4311C2.05222 14.4137 2.05212 14.415 2.4272 14.2868C2.57379 14.236 2.82817 14.256 2.97906 14.2106C3.02649 14.1959 3.09978 14.1719 3.08684 14.1585C3.0696 14.1411 2.98342 14.1278 2.91875 14.1197C2.85839 14.1117 2.78512 14.1077 2.72045 14.1117C1.93579 14.1505 1.15547 14.1919 0.370817 14.2293C0.237167 14.236 0.0905791 14.2066 0.043155 14.1652C-0.00426919 14.1264 0.00862258 14.0797 0 14.0356C0.125027 13.9808 0.267245 13.93 0.375027 13.8712C0.456942 13.8258 0.551807 13.8057 0.715636 13.8031C0.9312 13.7991 1.14247 13.783 1.38391 13.771C1.83228 13.5759 2.272 13.3715 2.75487 13.1764C2.94887 13.0976 2.90153 13.0174 2.94033 12.9332C2.97913 12.8557 3.26797 12.8677 3.46198 12.845C3.61718 12.8263 3.66885 12.7835 3.60849 12.7541C3.574 12.7368 3.49644 12.7167 3.43608 12.7167C3.29381 12.7167 3.15154 12.7288 3.00927 12.7354C2.867 12.7421 2.70318 12.7381 2.58677 12.7608C2.47468 12.7822 2.40135 12.8276 2.32805 12.8664C2.24614 12.9091 2.13843 12.9239 1.9746 12.9265C1.76335 12.9292 1.55211 12.9412 1.34086 12.9506C1.10805 12.8985 0.866565 12.8477 0.642378 12.7929C0.599265 12.7822 0.590596 12.7515 0.594907 12.7314C0.60353 12.6793 0.538877 12.6473 0.396605 12.6219C0.275889 12.6005 0.176721 12.5698 0.0646272 12.543C0.150853 12.507 0.245735 12.4722 0.314716 12.4335C0.465611 12.3519 0.655328 12.2932 0.982986 12.2958C1.11232 12.2437 1.21577 12.1796 1.38391 12.1435C1.54342 12.1088 1.81505 12.1435 1.93576 12.0647C1.99612 12.0259 2.08671 11.9818 2.20311 11.9658C2.3885 11.9404 2.62993 11.9538 2.73771 11.8789C2.80238 11.8362 2.89719 11.7974 3.02222 11.7867C3.16449 11.7747 3.31104 11.772 3.41451 11.7467C3.47055 11.7333 3.53092 11.7119 3.53092 11.6932C3.53092 11.6812 3.44476 11.6625 3.3844 11.6545C3.32836 11.6451 3.25498 11.6384 3.19031 11.6411C2.97475 11.6491 2.7635 11.6638 2.54793 11.6718C2.48758 11.6745 2.41862 11.6651 2.35395 11.6571C2.16425 11.6357 2.17716 11.609 2.32805 11.5609C2.47895 11.5142 2.58679 11.454 2.71182 11.3992C2.84978 11.3899 3.0222 11.3939 3.11705 11.3685C3.27657 11.3271 3.38863 11.2669 3.51797 11.2148C3.66025 11.2068 3.80682 11.2042 3.94047 11.1895C3.99652 11.1841 4.02241 11.1547 4.06983 11.1373C4.15606 11.1039 4.22941 11.0558 4.34581 11.0398C4.53551 11.0157 4.76831 11.0251 4.88041 10.9516C4.94508 10.9088 5.0442 10.8634 5.16491 10.8608C5.50119 10.8554 5.64347 10.7819 5.81592 10.7124C5.94526 10.6603 6.22119 10.687 6.36346 10.6349C6.45831 10.6015 6.52734 10.5601 6.62218 10.528C6.66099 10.5147 6.74287 10.508 6.80754 10.504C7.16107 10.4839 7.51889 10.4692 7.87242 10.4479C7.92846 10.4438 7.98024 10.4238 8.02335 10.4078C8.11389 10.373 8.16987 10.3249 8.28197 10.3022C8.39406 10.2795 8.55356 10.2795 8.69152 10.2728C9.13558 10.2528 9.1701 10.2581 9.37274 10.1445C9.53656 10.0523 9.93756 10.1178 10.0712 10.0163C10.1488 9.95747 10.291 9.90937 10.5454 9.90269C10.9032 9.89333 11.2567 9.86794 11.6146 9.85057C11.9336 9.83454 11.9293 9.83453 12.2742 9.71027C12.4294 9.65415 12.658 9.66217 12.8606 9.65148C13.0762 9.64079 13.2745 9.62476 13.3779 9.55795C13.4814 9.49248 13.6711 9.47109 13.891 9.46173C14.0936 9.45238 14.3221 9.45907 14.4817 9.40562C14.8697 9.27735 14.8654 9.276 15.137 9.26264C15.5638 9.24126 15.9906 9.21988 16.4174 9.19717C16.702 9.18247 16.9994 9.1798 17.2667 9.1504C17.4607 9.12902 17.5469 9.0542 17.672 9.00209C18.0255 8.98204 18.379 8.96199 18.7325 8.94328C19.2283 8.91656 19.7284 8.89252 20.2285 8.86713C20.4441 8.81635 20.4743 8.70411 20.8365 8.69876C21.0521 8.69609 21.2633 8.67872 21.4789 8.66803C21.8367 8.64933 22.1902 8.62527 22.5481 8.61592C22.8197 8.60924 22.867 8.53708 23.0093 8.49165C23.0567 8.47561 23.0999 8.4529 23.1559 8.44889C23.7164 8.41148 24.2941 8.40346 24.8416 8.34868C24.8976 8.34333 24.9494 8.31527 24.9623 8.29523C24.9709 8.28454 24.8976 8.2645 24.8502 8.25515C24.7942 8.24446 24.7209 8.23377 24.6605 8.23644C22.88 8.32597 21.0995 8.41683 19.3189 8.50636C19.0689 8.51972 19.0689 8.51838 18.461 8.66536C18.4092 8.67738 18.3488 8.69074 18.2841 8.69475C17.9996 8.71079 17.7107 8.72015 17.4305 8.74019C17.202 8.75623 17.0124 8.74018 16.8485 8.69208C16.7321 8.65734 16.6114 8.64665 16.4648 8.64933C16.301 8.65333 16.1932 8.66804 16.0984 8.70411C15.9734 8.75355 15.9087 8.81769 15.6457 8.83105C14.4342 8.8885 13.2227 8.95264 12.0155 9.01411C11.8474 8.9954 11.7655 8.96734 11.8086 8.93394C11.8344 8.91389 11.8862 8.88717 11.9379 8.8845C12.4337 8.85644 12.9338 8.83239 13.4296 8.80567C13.4986 8.80166 13.5934 8.80432 13.6322 8.79095C13.8219 8.73083 13.891 8.63328 14.2488 8.6266C14.4558 8.62259 14.667 8.60256 14.8653 8.58385C14.9214 8.57851 14.9731 8.55044 14.986 8.5304C14.9904 8.51971 14.9214 8.49966 14.8696 8.49031C14.6799 8.45156 14.4601 8.49834 14.2704 8.47162C14.2057 8.46226 14.1151 8.4489 14.1022 8.43286C14.0936 8.41816 14.1669 8.39411 14.2186 8.37941C14.266 8.36605 14.3307 8.35402 14.3953 8.35002C14.9644 8.31928 15.5336 8.28721 16.1027 8.26316C16.3355 8.25381 16.4993 8.2204 16.6028 8.15893C16.6804 8.1135 16.7752 8.08946 16.9218 8.08278C17.9177 8.03334 18.9136 7.97855 19.9138 7.93312C20.1639 7.92243 20.2933 7.87834 20.3967 7.82088C20.4786 7.77545 20.5735 7.75942 20.733 7.7514C22.1601 7.68192 23.5784 7.60442 25.0055 7.53761C25.2685 7.52558 25.3461 7.46812 25.4798 7.41868C25.5272 7.40131 25.5573 7.37994 25.6176 7.36925C25.678 7.35856 25.7556 7.35988 25.8289 7.35721C26.9671 7.29975 28.1053 7.2383 29.2478 7.18485C29.5151 7.17282 29.5668 7.106 29.7047 7.05924C29.7522 7.04454 29.7953 7.02049 29.8514 7.01648C30.705 6.97105 31.5586 6.9283 32.4122 6.8842C32.9813 6.8548 33.5504 6.82541 34.1195 6.79735C34.3997 6.78398 34.3997 6.78264 34.7791 6.6557C34.8222 6.641 34.8826 6.62363 34.9387 6.61962C36.577 6.5341 38.2109 6.45261 39.8492 6.36843C39.9872 6.36175 40.0863 6.331 40.1553 6.28557C40.2243 6.24014 40.3235 6.2094 40.4572 6.20272C41.7376 6.13591 43.018 6.07044 44.3028 6.00764C44.5356 5.99695 44.6994 5.96488 44.8029 5.90475C44.8805 5.85932 44.9753 5.83528 45.1219 5.8286C46.4024 5.76446 47.6829 5.6963 48.9676 5.63484C49.2134 5.62281 49.334 5.57738 49.4548 5.52394C49.4979 5.50523 49.5324 5.47449 49.5841 5.47182C50.2222 5.43441 50.8559 5.39566 51.4983 5.37027C51.7656 5.35958 51.8562 5.30346 51.964 5.25001C52.0502 5.20725 52.1494 5.19255 52.3132 5.18721C52.671 5.17518 53.0245 5.15248 53.3738 5.12976C53.4255 5.12575 53.4902 5.09635 53.4945 5.07765C53.5031 5.04291 53.4039 5.01885 53.2401 5.00682C51.5328 5.09368 49.8213 5.18052 48.114 5.26738C47.8338 5.28208 47.8338 5.28208 47.4544 5.40902C47.4113 5.42372 47.3508 5.4411 47.2905 5.4451C45.6522 5.52929 44.0183 5.61213 42.38 5.69631C42.242 5.70299 42.1429 5.73373 42.0739 5.77916C42.0049 5.82459 41.9057 5.85532 41.772 5.862C40.207 5.94217 38.6421 6.02368 37.0728 6.09985C36.84 6.11054 36.6762 6.14126 36.5727 6.20272C36.4951 6.24815 36.4002 6.27221 36.2537 6.2789C34.7576 6.35372 33.2659 6.43255 31.7655 6.50471C31.6146 6.51139 31.5026 6.47264 31.5112 6.43656C31.5156 6.41785 31.5801 6.38713 31.6319 6.38446C32.4122 6.34037 33.1883 6.29493 33.973 6.26152C34.236 6.25083 34.3135 6.19204 34.4471 6.1426C34.4903 6.12523 34.5248 6.10251 34.5808 6.09316C34.6412 6.08247 34.7188 6.08381 34.7921 6.08114C36.6416 5.98627 38.4912 5.89007 40.3451 5.80054C40.6124 5.78718 40.664 5.7217 40.802 5.67493C40.8494 5.65889 40.8926 5.63485 40.9486 5.63218C41.5177 5.60011 42.0868 5.57204 42.6559 5.54398C43.6518 5.49321 44.6476 5.44243 45.6479 5.39165C45.9367 5.37695 45.9367 5.37695 46.3075 5.25134C46.3506 5.23665 46.411 5.21795 46.4671 5.21528C49.1013 5.08032 51.7355 4.94536 54.3697 4.81174C54.5077 4.80506 54.6068 4.77433 54.6758 4.7289C54.7448 4.6848 54.8439 4.65274 54.9776 4.64472C58.5387 4.46299 62.0955 4.28126 65.6566 4.10221C65.8894 4.09018 66.0532 4.06212 66.1567 3.99932C66.23 3.95389 66.3291 3.92984 66.4757 3.92183C70.3904 3.72273 74.305 3.52364 78.224 3.32321C80.8582 3.18959 83.4924 3.05329 86.1266 2.92235C86.368 2.91032 86.4973 2.86889 86.618 2.8141C86.6568 2.7954 86.6957 2.76466 86.7474 2.76199C87.3122 2.72859 87.8769 2.69786 88.4417 2.66713C88.6185 2.7032 88.7952 2.73795 88.972 2.77403C89.1056 2.72325 89.235 2.67114 89.3687 2.62036C90.2223 2.58161 91.063 2.52148 91.9253 2.50277C91.9813 2.50144 92.0416 2.52683 92.102 2.54019C92.5029 2.62437 92.7315 2.61769 92.9858 2.50545C93.0764 2.46536 93.1539 2.42929 93.2919 2.42261C93.7187 2.39855 94.1499 2.38252 94.5725 2.35446C94.8009 2.33976 94.9906 2.35312 95.1544 2.40122C95.2708 2.43596 95.3916 2.45067 95.5339 2.44265C96.3185 2.40257 97.0988 2.36381 97.8835 2.32105C97.9395 2.31838 97.9912 2.29566 98.0343 2.27962C98.1249 2.24488 98.2025 2.20748 98.2887 2.1714C98.4051 2.19411 98.5345 2.21149 98.6293 2.24088C98.7501 2.27562 98.8621 2.27562 99.0259 2.26626C102.156 2.10458 105.29 1.94691 108.42 1.78389C108.688 1.77053 108.804 1.82666 108.985 1.85605C109.045 1.86674 109.106 1.8801 109.17 1.88277C109.239 1.88544 109.313 1.87743 109.382 1.87343C111.731 1.75317 114.081 1.63424 116.431 1.51398C116.741 1.49794 116.741 1.49794 117.202 1.58079C117.258 1.59148 117.332 1.60351 117.392 1.5995C118.461 1.54739 119.53 1.49127 120.595 1.43782C120.733 1.43114 120.85 1.45252 120.975 1.48325C121.221 1.54338 121.238 1.54338 121.419 1.45519C121.505 1.41377 121.596 1.38837 121.738 1.37634C121.893 1.36298 122.018 1.36701 122.139 1.39106C122.311 1.42446 122.436 1.48057 122.699 1.46588C123.837 1.40307 124.98 1.35097 126.114 1.28683C126.372 1.27213 126.51 1.31756 126.683 1.35096C126.743 1.36299 126.799 1.3817 126.864 1.38571C126.929 1.38972 127.006 1.38035 127.075 1.37634C128.498 1.30419 129.925 1.23338 131.343 1.15588C131.611 1.14119 131.727 1.19863 131.908 1.22803C131.969 1.23872 132.037 1.25743 132.093 1.25476C132.947 1.21334 133.805 1.16923 134.659 1.12514C134.965 1.1091 134.965 1.11044 135.43 1.19195C135.486 1.20264 135.56 1.21333 135.62 1.21066C136.616 1.16122 137.616 1.11044 138.612 1.05966C138.918 1.04363 138.918 1.04363 139.802 1.11312C139.867 1.11846 139.936 1.12649 140 1.12382C141.139 1.06636 142.281 1.01023 143.419 0.948765C143.648 0.936739 143.837 0.947426 144.001 0.995529C144.118 1.03027 144.238 1.04498 144.381 1.03696C145.661 0.971485 146.946 0.908686 148.222 0.839203C148.468 0.825841 148.627 0.855226 148.8 0.893976C148.856 0.907338 148.912 0.926049 148.977 0.931394C149.041 0.936739 149.115 0.93139 149.184 0.927381C150.464 0.861907 151.749 0.800444 153.025 0.729625C153.283 0.714927 153.421 0.760356 153.594 0.793761C153.654 0.805787 153.719 0.82984 153.771 0.828503C154.271 0.805788 154.771 0.785752 155.267 0.752347C155.534 0.73364 155.65 0.795094 155.831 0.824491C155.892 0.833844 155.961 0.853897 156.017 0.851225C157.086 0.799113 158.155 0.744332 159.22 0.688211C159.371 0.680194 159.483 0.692209 159.604 0.72695C159.763 0.773718 159.949 0.792425 160.182 0.777727C160.677 0.746994 161.177 0.725621 161.678 0.700233C161.971 0.685534 161.971 0.685539 162.868 0.755022C162.932 0.760367 163.001 0.768378 163.066 0.765706C163.919 0.722947 164.777 0.681527 165.627 0.63476C165.855 0.621398 166.045 0.63342 166.209 0.681524C166.325 0.716265 166.442 0.730971 166.588 0.722954C167.373 0.682868 168.153 0.642778 168.938 0.602692C169.222 0.587994 169.507 0.5626 169.791 0.5626C169.998 0.563936 170.149 0.628071 170.335 0.66014C170.386 0.669493 170.473 0.658816 170.542 0.656144C171.538 0.605368 172.538 0.558596 173.529 0.501139C173.788 0.486441 173.926 0.531869 174.098 0.565275C174.159 0.5773 174.223 0.601353 174.275 0.600017C174.633 0.585319 174.987 0.565274 175.344 0.547903C175.771 0.526524 176.202 0.510489 176.625 0.481093C176.97 0.457041 177.099 0.573287 177.375 0.577296C177.586 0.581304 177.802 0.558593 178.013 0.547903C178.44 0.526524 178.867 0.502475 179.293 0.483768C179.444 0.477087 179.561 0.455698 179.608 0.407595C179.617 0.398241 179.544 0.378207 179.496 0.366181C178.923 0.229888 178.923 0.229881 178.345 0.259278C177.987 0.277985 177.634 0.296695 177.276 0.312729C177.215 0.315402 177.146 0.304713 177.086 0.296696C176.914 0.27398 176.931 0.247259 177.078 0.199155C177.224 0.151052 177.336 0.0922638 177.461 0.0374794C177.638 0.0722207 177.81 0.10695 177.987 0.141691C178.13 0.13501 178.272 0.127005 178.414 0.120324C179.125 0.0855822 179.837 0.049502 180.548 0.017433C180.6 0.0147606 180.664 0.0414886 180.725 0.0548507C180.897 0.0936007 181.053 0.126997 181.303 0.112298C181.941 0.0735485 182.583 0.0454881 183.221 0.0120829C183.501 -0.00261533 183.501 -0.00261402 183.993 0.0802308C184.049 0.0895842 184.122 0.100275 184.183 0.0976021C184.825 0.0668694 185.463 0.0334681 186.105 0.00139916C186.243 -0.00528187 186.377 0.0120882 186.476 0.0508382C186.515 0.0668726 186.506 0.0935916 186.67 0.312729C187.179 0.490445 187.528 0.471747 187.882 0.455713C188.033 0.449032 188.166 0.442344 188.265 0.41562C188.317 0.400922 188.382 0.379539 188.382 0.362168C188.382 0.348806 188.287 0.327423 188.227 0.324751C187.8 0.298027 187.394 0.354155 186.976 0.366181C186.782 0.371526 186.614 0.324758 186.58 0.248594C186.571 0.227215 186.558 0.204501 186.545 0.183121C186.532 0.161742 186.524 0.139028 186.511 0.117649C186.343 0.110967 186.243 0.135015 186.17 0.180446C186.11 0.21786 186.023 0.260619 185.907 0.280662C185.791 0.302041 185.631 0.29804 185.489 0.304721C185.351 0.311402 185.2 0.32877 185.071 0.319417C184.941 0.308727 184.838 0.269971 184.717 0.245919C184.661 0.233893 184.592 0.216529 184.536 0.219202C184.04 0.241917 183.549 0.264624 183.057 0.294021C182.799 0.310055 182.669 0.253943 182.505 0.219202C182.376 0.192477 182.247 0.19915 182.225 0.260615C182.169 0.407598 182.367 0.46906 182.807 0.441C183.169 0.416948 183.497 0.412952 183.782 0.503814C183.82 0.51584 183.911 0.521183 183.967 0.518511C184.32 0.502476 184.67 0.482431 185.023 0.466397C185.088 0.463724 185.157 0.46906 185.217 0.474405C186.097 0.54656 186.097 0.547904 186.394 0.531869C186.537 0.523852 186.674 0.51717 186.661 0.314067C186.933 0.0962653 187.364 0.0815696 187.782 0.0495006C188.054 0.0294575 188.17 0.0882533 188.347 0.118986C188.408 0.129676 188.472 0.151051 188.528 0.148379C189.455 0.104284 190.378 0.0575101 191.3 0.00807041C191.456 5.31674e-05 191.568 0.00807171 191.688 0.0428131C191.844 0.0869079 192.016 0.114974 192.262 0.0989396C192.753 0.0668707 193.253 0.0468321 193.754 0.020108C194.008 0.00674594 194.008 0.00673225 194.521 0.0895771C194.577 0.0989305 194.65 0.109621 194.711 0.106948C195.211 0.0842329 195.707 0.056181 196.202 0.0321293C196.34 0.0254483 196.465 0.0441532 196.573 0.0802308C196.681 0.116308 196.81 0.135013 196.944 0.128332C197.444 0.104281 197.94 0.0775649 198.436 0.0535132C198.496 0.0508408 198.569 0.0601936 198.625 0.069547C199.151 0.152392 199.151 0.152378 199.393 0.139016C199.746 0.118973 200.108 0.10963 200.458 0.0829058C200.798 0.0561817 200.975 0.133675 201.208 0.176434C201.846 0.145701 202.488 0.12032 203.122 0.0829058C203.381 0.0668713 203.519 0.110962 203.691 0.145704C203.751 0.157729 203.812 0.18312 203.868 0.181784C204.083 0.176439 204.295 0.161743 204.506 0.151054C204.717 0.140364 204.933 0.129676 205.144 0.118986C205.385 0.157736 205.545 0.248597 205.89 0.217864C206.097 0.199157 206.317 0.195148 206.528 0.184459C206.739 0.173769 206.955 0.163081 207.166 0.152391C207.308 0.14571 207.455 0.141696 207.593 0.12967C207.847 0.109627 207.972 0.175109 208.153 0.204505C208.214 0.213859 208.283 0.229883 208.339 0.22721C208.765 0.208503 209.197 0.19247 209.615 0.161737C209.938 0.137686 210.158 0.177777 210.387 0.233898C210.434 0.245924 210.516 0.252604 210.576 0.249932C211.076 0.227216 211.572 0.199148 212.068 0.175096C212.202 0.168415 212.331 0.189794 212.439 0.224535C212.551 0.260613 212.676 0.277997 212.814 0.271316C213.31 0.247264 213.81 0.220532 214.306 0.19648C214.366 0.193808 214.439 0.204499 214.495 0.215189C214.978 0.298034 214.978 0.299371 215.263 0.283337C215.332 0.279328 215.405 0.276645 215.474 0.272637C215.827 0.25393 216.194 0.247258 216.539 0.215189C216.935 0.179111 217.224 0.224544 217.504 0.300708C217.858 0.284674 218.22 0.275318 218.565 0.248594C218.824 0.228551 218.962 0.279324 219.134 0.312729C219.195 0.324755 219.259 0.348807 219.311 0.346135C219.811 0.323419 220.311 0.303383 220.803 0.269978C221.07 0.251271 221.186 0.311389 221.367 0.342122C221.428 0.352812 221.492 0.371528 221.548 0.368856C221.833 0.358166 222.118 0.342124 222.402 0.327426C222.734 0.310055 222.734 0.31139 223.174 0.392899C223.381 0.431649 223.588 0.400915 223.79 0.391561C224.006 0.380871 224.208 0.372857 224.381 0.427641C224.489 0.462383 224.618 0.483763 224.752 0.478418C225.036 0.466392 225.325 0.454372 225.605 0.434329C225.83 0.418294 226.024 0.428978 226.187 0.478418C226.304 0.513159 226.425 0.53054 226.567 0.522523C227.205 0.490454 227.847 0.457037 228.485 0.426304C228.541 0.423631 228.619 0.435662 228.671 0.447688C228.791 0.471739 228.908 0.498458 229.024 0.525182C229.304 0.513156 229.593 0.507825 229.869 0.489118C230.162 0.470411 230.43 0.463728 230.658 0.537219C230.706 0.553254 230.775 0.575957 230.831 0.574621C231.046 0.569276 231.257 0.555918 231.469 0.545228C231.68 0.534539 231.895 0.52385 232.107 0.51316C232.352 0.546566 232.508 0.642771 232.853 0.612038C233.06 0.593332 233.279 0.589323 233.491 0.578633C233.702 0.567944 233.918 0.555919 234.129 0.546566C234.198 0.543893 234.275 0.537208 234.336 0.542553C234.4 0.547898 234.456 0.566609 234.512 0.579971C234.685 0.618721 234.844 0.657475 235.09 0.63476C235.297 0.616053 235.517 0.612043 235.728 0.600017C236.017 0.585319 236.017 0.585322 236.496 0.669503C236.69 0.704244 236.91 0.658815 237.095 0.688211C237.22 0.708255 237.328 0.741653 237.448 0.764368C237.5 0.773722 237.582 0.777724 237.642 0.775052C237.927 0.763026 238.216 0.751006 238.496 0.730963C238.725 0.714928 238.914 0.730961 239.074 0.779064C239.19 0.813806 239.307 0.828512 239.453 0.820495C240.165 0.783081 240.876 0.751001 241.583 0.709579C241.824 0.694881 242.018 0.717602 242.152 0.765706C242.381 0.84855 242.704 0.751009 242.941 0.81782C243.088 0.859242 243.234 0.907348 243.502 0.887305C243.993 0.852564 244.493 0.833846 244.989 0.809794C245.166 0.845872 245.342 0.881958 245.524 0.918035C245.808 0.903337 246.093 0.888629 246.377 0.875267C246.588 0.864578 246.804 0.852553 247.015 0.8432C247.084 0.840527 247.157 0.835181 247.222 0.841862C247.287 0.848543 247.339 0.865918 247.399 0.87928C247.696 0.944754 247.696 0.946097 248.188 0.919373C248.399 0.907347 248.602 0.899329 248.779 0.952778C248.942 1.00222 249.136 1.01156 249.361 0.996867C249.783 0.970143 250.21 0.950101 250.641 0.931394C250.775 0.924713 250.9 0.947429 251.012 0.98217C251.18 1.03695 251.387 1.03161 251.598 1.01691C251.878 0.998206 252.154 0.979503 252.391 1.05433C252.439 1.07037 252.512 1.09307 252.564 1.09173C252.917 1.08104 253.275 1.07303 253.62 1.04764C253.965 1.02226 254.133 1.1051 254.37 1.14518C254.724 1.12781 255.082 1.11044 255.435 1.09307C255.504 1.08906 255.586 1.07704 255.646 1.08372C255.901 1.11178 256.047 1.212 256.397 1.18126C256.599 1.16389 256.819 1.15855 257.03 1.15455C257.086 1.15321 257.16 1.17591 257.199 1.19329C257.22 1.20264 257.198 1.22802 257.173 1.24139C257.095 1.2788 257 1.31355 256.931 1.3523C256.923 1.35765 257.004 1.38169 257.052 1.39238C257.168 1.41643 257.302 1.41243 257.457 1.40174C257.591 1.39239 257.729 1.41109 257.824 1.45118C257.862 1.46721 257.849 1.49394 257.768 1.58213C257.768 1.6476 257.858 1.6182 257.888 1.57544C257.936 1.51397 257.845 1.49393 257.673 1.52734C257.552 1.55139 257.492 1.58613 257.522 1.61419C257.539 1.62889 257.621 1.6476 257.768 1.58213C258.147 1.50195 258.432 1.48726 258.716 1.47256C258.789 1.46856 258.876 1.45518 258.927 1.4632C259.113 1.49527 259.285 1.53403 259.466 1.5701C259.673 1.56209 259.867 1.54204 260.07 1.59415C260.354 1.66764 260.367 1.66096 260.643 1.64626C260.785 1.63824 260.928 1.63157 261.07 1.62489C261.212 1.61821 261.324 1.63825 261.449 1.66898C261.704 1.73178 261.725 1.73178 261.893 1.64626C261.993 1.59415 262.062 1.57678 262.187 1.60083C262.6 1.68234 262.605 1.68768 262.958 1.66363C263.251 1.64359 263.527 1.63825 263.743 1.71441C263.89 1.76786 263.937 1.75583 264.053 1.69971C264.364 1.55139 264.506 1.55406 265.088 1.66096C265.36 1.71173 265.64 1.65695 265.916 1.65027C266.149 1.64493 266.313 1.67699 266.33 1.76117C266.343 1.81329 266.382 1.85071 266.537 1.86808C266.597 1.87476 266.67 1.88411 266.731 1.88143C267.089 1.8654 267.442 1.84669 267.8 1.82798C267.981 1.81863 268.08 1.75584 268.046 1.673C268.007 1.58481 268.076 1.55272 268.335 1.52734C268.49 1.51264 268.615 1.51532 268.74 1.53937C268.878 1.5661 268.839 1.59015 268.718 1.63825C268.429 1.75584 268.464 1.82798 268.835 1.90949C268.964 1.93755 269.067 1.96295 269.098 2.00437C269.115 2.02575 269.098 2.05381 269.136 2.06984C269.348 2.15937 269.641 2.21683 269.969 2.25959C270.283 2.22351 270.499 2.28363 270.74 2.33174C270.93 2.36915 271.154 2.33709 271.357 2.32373C271.585 2.30903 271.775 2.31971 271.939 2.36915C272.055 2.4039 272.176 2.41992 272.318 2.41324C272.603 2.39854 272.892 2.3892 273.172 2.36782C273.413 2.34911 273.594 2.37584 273.745 2.42127C273.935 2.47872 274.146 2.43997 274.345 2.44799C274.612 2.45734 274.745 2.57626 275.095 2.54419C275.302 2.52548 275.517 2.5188 275.733 2.51346C275.789 2.51212 275.858 2.53484 275.905 2.55088C276.134 2.62437 276.401 2.62036 276.694 2.59898C276.897 2.58428 277.095 2.57092 277.293 2.6217C277.621 2.70722 277.983 2.78205 278.328 2.86088C278.376 2.92235 278.341 2.99449 278.587 3.03057C278.716 3.04928 278.837 3.07735 278.936 3.10808C279.057 3.14416 279.169 3.15351 279.324 3.14416C279.604 3.12545 279.897 3.12143 280.173 3.09738C280.428 3.076 280.587 3.12011 280.742 3.16153C280.867 3.19494 280.984 3.21096 281.135 3.18691C281.29 3.1642 281.402 3.17889 281.527 3.21497C281.704 3.26441 281.717 3.25907 282.303 3.27377C282.363 3.2751 282.437 3.29514 282.471 3.31251C282.488 3.32186 282.45 3.3486 282.42 3.36196C282.381 3.378 282.32 3.39669 282.264 3.4007C281.626 3.43544 280.984 3.46618 280.346 3.50092C280.281 3.50493 280.212 3.51429 280.165 3.52765C280.113 3.54235 280.048 3.56238 280.048 3.58109C280.048 3.59445 280.134 3.61049 280.195 3.61984C280.385 3.65057 280.609 3.60381 280.794 3.63855C280.919 3.66127 281.023 3.69333 281.148 3.71471C281.199 3.72406 281.281 3.72273 281.346 3.72006C281.562 3.7107 281.773 3.69734 281.988 3.68933C282.049 3.68799 282.118 3.70136 282.174 3.71205C282.588 3.79222 282.588 3.79222 282.946 3.77485C283.088 3.76816 283.239 3.74812 283.372 3.75614C283.502 3.76415 283.614 3.80023 283.73 3.82295C283.972 3.87105 284.2 3.91782 284.217 4.02204C284.226 4.06213 284.368 4.09686 284.51 4.09953C284.648 4.10221 284.795 4.08752 284.937 4.0795C285.274 4.06347 285.274 4.06347 285.709 4.14498C285.83 4.16769 285.959 4.17036 286.114 4.157C286.175 4.15165 286.248 4.15701 286.313 4.16369C286.524 4.18373 286.524 4.20911 286.386 4.25721C286.192 4.32803 286.209 4.33472 286.752 4.39485C286.959 4.41756 287.119 4.46032 287.291 4.49774C287.571 4.55787 287.567 4.55786 287.382 4.63669C287.339 4.65406 287.3 4.67277 287.257 4.69148C287.132 4.74359 287.033 4.79971 286.774 4.80506C286.489 4.8104 286.205 4.83179 285.92 4.84649C285.644 4.86118 285.571 4.89324 285.597 4.9841C285.627 5.09367 285.683 5.1057 286.179 5.10436C286.321 5.10436 286.446 5.11505 286.554 5.15113C286.502 5.19389 286.407 5.22729 286.27 5.23531C285.916 5.25535 285.558 5.27273 285.205 5.2901C284.92 5.3048 284.636 5.31949 284.351 5.33419C284.174 5.34354 284.062 5.41303 284.11 5.49053C284.135 5.53463 284.157 5.57872 284.178 5.62281C284.226 5.711 284.316 5.73373 284.605 5.72972C284.679 5.72838 284.748 5.71768 284.817 5.72035C285.097 5.72971 285.23 5.84061 285.567 5.81789C285.847 5.79919 286.14 5.79518 286.416 5.77113C286.671 5.74975 286.813 5.79787 286.989 5.83395C287.05 5.84597 287.115 5.87135 287.166 5.87001C287.524 5.85531 287.882 5.84062 288.231 5.81524C288.395 5.80455 288.494 5.81256 288.623 5.84463C288.934 5.92213 288.943 5.91812 289.404 5.89407C289.74 5.87536 289.744 5.87803 290.176 5.95954C290.296 5.98226 290.426 5.98225 290.581 5.97156C290.783 5.9582 290.995 5.93682 291.206 5.95687C291.271 5.96221 291.353 5.97825 291.374 5.99562C291.387 6.00765 291.327 6.03704 291.275 6.0464C290.896 6.11588 290.451 6.10386 290.038 6.13192C289.908 6.13993 289.779 6.11454 289.671 6.07846C289.559 6.04239 289.438 6.0277 289.292 6.03438C289.007 6.04907 288.718 6.05842 288.438 6.0798C288.197 6.09851 288.028 6.06777 287.86 6.02635C287.804 6.01299 287.74 5.9876 287.684 5.98893C287.046 6.01566 286.403 6.04239 285.769 6.0798C285.515 6.09584 285.368 6.05308 285.196 6.017C285.136 6.00498 285.075 5.97959 285.019 5.98092C284.804 5.98627 284.592 6.00097 284.377 6.01165C283.592 6.05174 282.812 6.09183 282.027 6.12924C281.975 6.13191 281.911 6.10385 281.85 6.09182C281.734 6.06777 281.613 6.04505 281.493 6.02234C281.277 6.03303 281.066 6.04639 280.85 6.05441C280.695 6.05975 280.557 6.07847 280.535 6.12924C280.523 6.16265 280.665 6.19337 280.816 6.1907C280.962 6.18803 281.109 6.17199 281.23 6.18936C281.829 6.27488 281.829 6.27622 282.204 6.25885C282.532 6.24282 282.497 6.22945 282.786 6.30294C282.911 6.33501 283.023 6.35372 283.165 6.34571C283.519 6.327 283.877 6.30829 284.235 6.29225C284.291 6.28958 284.364 6.30295 284.42 6.31364C284.842 6.39381 284.842 6.39648 285.192 6.37644C285.649 6.35239 285.666 6.3457 285.972 6.42721C286.183 6.48333 286.377 6.44458 286.58 6.44191C286.813 6.49402 287.067 6.5408 287.278 6.59959C287.528 6.66907 287.791 6.65703 288.076 6.63699C288.287 6.62229 288.494 6.61695 288.667 6.67173C288.83 6.72251 289.029 6.72786 289.253 6.7145C289.456 6.70248 289.663 6.67708 289.874 6.70648C289.93 6.71449 290.016 6.73454 290.012 6.74657C290.007 6.76528 289.951 6.792 289.895 6.80002C289.499 6.8548 289.063 6.85346 288.645 6.87885C288.589 6.88286 288.516 6.86816 288.46 6.85747C288.339 6.83342 288.223 6.80536 288.106 6.77997C287.895 6.78799 287.679 6.79066 287.472 6.80669C287.313 6.81872 287.192 6.81739 287.076 6.78532C286.968 6.75593 286.852 6.71984 286.722 6.71049C286.593 6.70113 286.442 6.72118 286.3 6.7292C286.157 6.73721 285.994 6.7332 285.882 6.75458C285.769 6.77596 285.7 6.82273 285.627 6.86014C285.545 6.90157 285.433 6.91494 285.269 6.91894C285.118 6.92295 284.998 6.9176 284.886 6.88019C284.838 6.86415 284.773 6.85212 284.709 6.84143C284.648 6.83208 284.579 6.81738 284.523 6.82005C283.881 6.85078 283.243 6.8842 282.601 6.91627C282.282 6.9323 282.286 6.93229 281.622 6.85346C281.562 6.84677 281.488 6.83742 281.428 6.8401C281.07 6.85613 280.717 6.87484 280.359 6.89355C279.997 6.91225 280.001 6.90958 279.384 6.8254C279.272 6.80937 279.108 6.83075 278.975 6.82807C278.695 6.82139 278.557 6.70916 278.229 6.73053C277.949 6.74924 277.655 6.75325 277.375 6.7773C277.121 6.79868 276.974 6.75192 276.802 6.71584C276.742 6.70381 276.677 6.67709 276.625 6.67976C275.983 6.70915 275.345 6.74256 274.491 6.74657C274.28 6.74657 274.375 6.77463 274.513 6.78399C274.711 6.79868 274.776 6.77062 274.668 6.71718C274.59 6.67976 274.478 6.66104 274.388 6.6704C274.34 6.67574 274.28 6.70114 274.491 6.74657C274.715 6.79734 274.702 6.8254 274.741 6.84143C274.836 6.88018 274.97 6.89622 275.108 6.89087C275.323 6.88152 275.534 6.86816 275.75 6.86014C275.81 6.85747 275.884 6.86682 275.94 6.87751C276.414 6.96036 276.418 6.96571 276.923 6.93364C277.082 6.92429 277.199 6.92429 277.324 6.94967C277.496 6.98442 277.621 7.0432 277.884 7.02449C278.233 6.99911 278.591 6.98442 278.949 6.96972C279.005 6.96705 279.065 6.9911 279.13 7.00179C279.307 7.03386 279.436 7.09399 279.699 7.0686C279.902 7.04856 280.122 7.0432 280.337 7.03919C280.393 7.03785 280.479 7.05924 280.505 7.07661C280.557 7.10734 280.492 7.14343 280.346 7.16881C280.285 7.1795 280.204 7.17683 280.135 7.18084C279.85 7.19553 279.565 7.21156 279.281 7.22359C279.13 7.23027 278.988 7.25032 278.971 7.29976C278.958 7.33317 279.113 7.36256 279.259 7.35988C279.475 7.35587 279.69 7.34519 279.897 7.32782C280.264 7.29842 280.583 7.30643 280.88 7.39061C281.092 7.44941 281.079 7.42804 281.303 7.60174C281.359 7.64584 281.527 7.64984 281.674 7.64717C282.027 7.64049 282.191 7.66054 282.161 7.70196C282.122 7.75274 281.997 7.76876 281.837 7.77544C281.553 7.78613 281.268 7.80351 280.984 7.81821C280.915 7.82222 280.837 7.83023 280.773 7.82756C280.708 7.82488 280.648 7.80885 280.592 7.79682C280.471 7.77144 280.367 7.73268 280.238 7.72333C280.109 7.71397 279.958 7.73402 279.816 7.74204C279.673 7.74872 279.522 7.76876 279.393 7.75941C279.264 7.75005 279.156 7.70998 279.039 7.68593C278.983 7.6739 278.914 7.65518 278.858 7.65652C278.574 7.66721 278.289 7.68459 278.005 7.69795C277.656 7.71532 277.656 7.71532 277.233 7.63247C277.112 7.60842 276.987 7.60976 276.828 7.62045C276.483 7.64183 276.479 7.63781 275.849 7.56031C275.789 7.5523 275.715 7.54295 275.655 7.54696C275.013 7.57769 274.375 7.61109 273.737 7.64316C273.189 7.67122 273.189 7.67123 272.887 7.80485C272.663 7.90373 272.659 7.90372 272.879 7.94915C273.055 7.98657 273.215 8.04135 273.409 8.06139C273.59 8.0801 273.814 8.01997 274.013 8.08144C274.112 8.11217 274.241 8.14558 274.366 8.15092C274.564 8.1576 274.776 8.11885 274.965 8.17764C275.06 8.20704 275.202 8.23778 275.323 8.23912C275.534 8.24179 275.75 8.2204 275.961 8.21105C276.026 8.20837 276.099 8.20838 276.16 8.21506C276.224 8.22308 276.28 8.23911 276.336 8.25248C276.509 8.29791 276.694 8.31928 276.918 8.29657C277.285 8.25915 277.612 8.27786 277.897 8.36338C277.936 8.3754 278.031 8.37675 278.091 8.3714C278.246 8.35804 278.38 8.3567 278.496 8.38208C278.544 8.39277 278.613 8.41147 278.604 8.4235C278.591 8.44354 278.539 8.47027 278.483 8.47695C278.078 8.52238 277.643 8.52773 277.224 8.55178C277.168 8.55446 277.099 8.53708 277.043 8.52505C276.923 8.501 276.819 8.46092 276.69 8.45157C276.56 8.44222 276.41 8.45959 276.267 8.46627C276.125 8.47295 275.974 8.49299 275.845 8.48497C275.716 8.47562 275.595 8.44221 275.491 8.41281C275.371 8.37941 275.254 8.37541 275.095 8.38877C274.888 8.40614 274.672 8.40881 274.461 8.41816C274.345 8.39278 274.228 8.36471 274.107 8.34065C274.051 8.32863 273.982 8.31394 273.922 8.31527C273.637 8.32596 273.353 8.34199 273.068 8.35669C272.784 8.37139 272.784 8.3714 272.301 8.28856C272.245 8.2792 272.172 8.26851 272.111 8.27118C271.753 8.28722 271.4 8.30725 271.042 8.32328C270.904 8.32996 270.779 8.31126 270.667 8.27518C270.559 8.2391 270.43 8.21906 270.296 8.22574C269.727 8.2538 269.158 8.28053 268.589 8.31394C268.36 8.3273 268.166 8.31528 268.011 8.26717C267.83 8.21239 267.628 8.22575 267.416 8.23644C266.938 8.26317 266.933 8.26182 266.627 8.19367C266.567 8.18031 266.507 8.15492 266.451 8.15626C265.955 8.1763 265.455 8.19501 264.963 8.22708C264.704 8.24445 264.566 8.19769 264.394 8.16294C264.334 8.15092 264.269 8.12553 264.217 8.1282C263.859 8.1429 263.502 8.15627 263.152 8.18299C262.803 8.20971 262.669 8.08545 262.406 8.08679C262.049 8.08812 261.695 8.11886 261.342 8.13756C261.057 8.15226 260.773 8.16695 260.488 8.18165C260.203 8.19635 259.919 8.20837 259.634 8.22574C259.483 8.2351 259.371 8.22307 259.246 8.18966C259.087 8.14557 258.897 8.11084 258.725 8.07075C258.462 8.0133 258.462 8.01329 258.143 8.02932C258.074 8.03333 258 8.036 257.931 8.04001C257.41 8.0694 257.41 8.06674 256.746 7.98256C256.716 7.97855 256.638 7.99325 256.608 8.00394C256.517 8.03868 256.435 8.07609 256.354 8.11217C256.237 8.09079 256.095 8.07876 256.017 8.04803C255.797 7.96118 255.452 8.0801 255.228 7.99458C255.146 7.96251 255.004 7.93445 254.875 7.92643C254.741 7.91842 254.59 7.93712 254.452 7.94514C254.094 7.96519 254.094 7.96385 253.788 8.08278C253.633 8.14157 253.409 8.13087 253.206 8.14424C252.995 8.15893 252.792 8.16695 252.616 8.11217C252.456 8.06273 252.262 8.05071 252.034 8.06674C251.753 8.08678 251.465 8.0988 251.18 8.11083C251.12 8.1135 251.046 8.10683 250.986 8.09881C250.326 8.01997 250.326 8.01864 250.007 8.03601C249.865 8.04403 249.718 8.04669 249.58 8.05872C249.348 8.0801 249.171 8.05204 249.003 8.00928C248.947 7.99592 248.882 7.97054 248.826 7.97188C248.541 7.97856 248.261 7.99058 247.981 8.00261C247.765 8.01196 247.55 8.0173 247.343 8.03601C246.998 8.06674 246.83 7.97988 246.593 7.93979C246.239 7.95716 245.881 7.96919 245.528 7.99324C245.364 8.00393 245.256 7.99993 245.131 7.96786C244.972 7.92778 244.825 7.88235 244.566 7.90239C244.222 7.92911 243.859 7.93847 243.506 7.9545C243.269 7.91308 243.096 7.82889 242.756 7.85962C242.549 7.87833 242.329 7.88234 242.118 7.89303C241.833 7.90773 241.549 7.9211 241.264 7.93713C240.958 7.95317 240.962 7.94916 240.492 7.87032C240.221 7.82356 239.94 7.87566 239.664 7.88368C239.449 7.89036 239.341 7.95183 239.393 8.03066C239.445 8.1095 239.328 8.17096 239.13 8.18165C238.634 8.20704 238.134 8.23376 237.638 8.25647C237.578 8.25914 237.505 8.24979 237.448 8.24044C236.918 8.15626 236.918 8.15761 236.681 8.16963C236.328 8.18968 235.965 8.20035 235.616 8.22574C235.375 8.24311 235.198 8.21506 235.043 8.16963C234.922 8.13489 234.81 8.12687 234.655 8.13489C232.948 8.22441 231.24 8.30726 229.537 8.39946C229.283 8.41282 229.136 8.37407 228.964 8.338C228.904 8.32597 228.847 8.30058 228.787 8.30058C228.645 8.30058 228.503 8.31261 228.36 8.32062C227.722 8.35269 227.084 8.39144 226.442 8.41549C226.17 8.42618 226.097 8.48765 225.98 8.53843C225.89 8.57718 225.786 8.5932 225.627 8.59855C225.472 8.60389 225.36 8.59721 225.239 8.56247C225.084 8.51704 224.907 8.48897 224.666 8.50768C224.385 8.52906 224.101 8.53842 223.812 8.55312C223.665 8.5598 223.553 8.58385 223.506 8.63195C223.497 8.63997 223.588 8.66002 223.639 8.67205C223.812 8.71213 223.976 8.7589 224.17 8.78696C224.368 8.81502 224.584 8.78294 224.79 8.77492C224.864 8.77225 224.933 8.76424 225.002 8.76557C225.066 8.76691 225.144 8.77359 225.192 8.78562C225.416 8.84575 225.653 8.88717 225.963 8.85109C226.23 8.86846 226.369 8.97937 226.709 8.94997C226.916 8.9326 227.132 8.92459 227.347 8.9179C227.403 8.91657 227.464 8.94062 227.524 8.95265C227.696 8.98605 227.834 9.0395 228.093 9.01678C228.369 8.99273 228.662 8.98872 228.942 8.97002C229.098 8.95933 229.21 8.96868 229.33 9.00342C229.486 9.04752 229.662 9.08091 229.904 9.05953C230.111 9.04083 230.331 9.03682 230.542 9.02479C230.818 9.01009 230.818 9.01143 231.309 9.09428C231.365 9.10363 231.439 9.11432 231.499 9.11165C231.857 9.09561 232.21 9.07557 232.568 9.05953C232.706 9.05285 232.84 9.07022 232.935 9.10897C232.973 9.12501 232.96 9.15175 232.973 9.17446C232.262 9.21054 231.551 9.24127 230.844 9.28536C230.576 9.30273 230.456 9.24795 230.279 9.21721C230.218 9.20652 230.154 9.18381 230.098 9.18648C229.598 9.2092 229.102 9.23324 228.606 9.26264C228.451 9.27199 228.334 9.26665 228.218 9.2279C227.921 9.12501 227.558 9.18113 227.222 9.19583C226.963 9.20652 226.882 9.24795 226.912 9.33614C226.951 9.44036 227.106 9.47243 227.502 9.45372C227.645 9.44704 227.787 9.43769 227.929 9.43234C228.067 9.427 228.192 9.44436 228.304 9.48044C228.412 9.51652 228.541 9.53523 228.675 9.52988C228.96 9.51785 229.248 9.50583 229.524 9.48579C229.753 9.46976 229.943 9.48312 230.102 9.53256C230.279 9.58734 230.486 9.57531 230.693 9.56329C231.176 9.53656 231.18 9.53791 231.482 9.60472C231.542 9.61808 231.602 9.64347 231.658 9.64213C232.154 9.62209 232.654 9.60472 233.142 9.57265C233.396 9.55661 233.542 9.59937 233.711 9.63411C233.771 9.64613 233.831 9.67286 233.887 9.67019C234.245 9.65549 234.603 9.64079 234.952 9.6154C235.116 9.60337 235.215 9.61139 235.349 9.64346C235.668 9.72229 235.677 9.71962 236.129 9.69423C236.267 9.68621 236.418 9.67152 236.547 9.68221C236.677 9.6929 236.78 9.73166 236.901 9.75571C236.957 9.7664 237.026 9.78109 237.086 9.77841C237.371 9.76772 237.655 9.7517 237.94 9.737C238.207 9.7223 238.207 9.72364 238.707 9.80649C238.91 9.84123 239.121 9.81182 239.324 9.80114C239.544 9.78911 239.742 9.78911 239.91 9.84123C240.078 9.89334 240.281 9.89066 240.497 9.87997C240.699 9.86928 240.906 9.83989 241.113 9.87597C241.587 9.95881 241.587 9.96014 241.881 9.9441C242.307 9.92139 242.73 9.90001 243.161 9.87997C243.217 9.87729 243.29 9.89334 243.346 9.90403C243.467 9.92808 243.571 9.96815 243.7 9.97751C243.829 9.9882 243.98 9.97217 244.118 9.96415C244.562 9.93876 244.592 9.92941 244.89 10.0176C245.14 10.0898 245.45 9.98553 245.683 10.0684C245.817 10.1151 245.998 10.1526 246.248 10.1298C246.455 10.1111 246.67 10.1058 246.886 10.0951C247.226 10.0777 247.226 10.0791 247.658 10.1592C247.714 10.1699 247.787 10.1833 247.843 10.1806C248.127 10.1699 248.416 10.1606 248.692 10.1365C249.016 10.1085 249.223 10.1592 249.464 10.2087C249.654 10.2474 249.878 10.2154 250.081 10.202C250.3 10.1886 250.499 10.1926 250.663 10.2447C250.835 10.2982 251.038 10.2915 251.253 10.2808C251.456 10.2715 251.663 10.2407 251.87 10.2782C252.314 10.361 252.314 10.361 252.637 10.345C252.922 10.3303 253.206 10.3142 253.491 10.3035C253.547 10.3009 253.616 10.3182 253.672 10.3303C253.793 10.3543 253.896 10.3944 254.025 10.4038C254.155 10.4131 254.306 10.3958 254.448 10.3891C254.59 10.3824 254.741 10.3623 254.87 10.3704C255 10.3784 255.12 10.4118 255.224 10.4412C255.345 10.4759 255.457 10.4799 255.621 10.4666C255.827 10.4492 256.043 10.4452 256.254 10.4358C256.371 10.4612 256.491 10.4866 256.604 10.5147C256.72 10.5441 256.845 10.5414 257.004 10.532C257.535 10.5 257.539 10.504 257.983 10.5868C258.186 10.6242 258.397 10.5935 258.6 10.5842C258.815 10.5735 259.018 10.5681 259.186 10.6216C259.35 10.6723 259.552 10.679 259.768 10.663C259.906 10.6523 260.053 10.6456 260.195 10.6416C260.26 10.6403 260.337 10.6456 260.385 10.6563C260.613 10.7124 260.837 10.7632 261.152 10.7271C261.428 10.7378 261.566 10.8474 261.898 10.826C262.178 10.8073 262.471 10.8033 262.747 10.7792C263.001 10.7579 263.183 10.7953 263.312 10.842C263.545 10.9249 263.872 10.8127 264.105 10.8942C264.239 10.9409 264.411 10.9783 264.67 10.9583C264.954 10.9369 265.045 10.965 265.127 11.0491C265.174 11.0973 265.166 11.136 265.08 11.1734C264.993 11.2122 264.898 11.2055 264.761 11.1614C264.601 11.112 264.411 11.1026 264.183 11.1133C263.959 11.124 263.821 11.0545 263.635 11.0278C263.45 10.9997 263.23 11.0465 263.036 11.0104C262.579 10.9262 262.579 10.9262 262.269 10.9423C262.057 10.953 261.837 10.9583 261.631 10.977C261.385 10.9997 261.225 10.9583 261.057 10.9209C260.997 10.9075 260.936 10.8821 260.885 10.8835C260.389 10.9035 259.889 10.9222 259.397 10.9556C259.139 10.973 259.001 10.9249 258.828 10.8915C258.768 10.8795 258.703 10.8554 258.651 10.8581C258.225 10.8768 257.802 10.9008 257.375 10.9236C257.293 10.9596 257.203 10.9944 257.125 11.0331C257.043 11.0732 256.931 11.0906 256.767 11.0892C256.496 11.0892 256.228 11.1454 255.957 11.0745C255.677 11.0024 255.655 11.0064 255.383 11.0238C255.039 11.0465 254.672 11.0411 254.349 11.0933C254.293 11.1026 254.232 11.128 254.232 11.1467C254.228 11.1587 254.319 11.1761 254.375 11.1868C254.564 11.2188 254.784 11.1721 254.974 11.2055C255.099 11.2269 255.202 11.2589 255.327 11.2816C255.379 11.291 255.457 11.2897 255.526 11.2883C255.599 11.287 255.668 11.2777 255.737 11.279C255.802 11.2803 255.871 11.2883 255.922 11.3004C256.16 11.3511 256.41 11.3979 256.621 11.458C256.828 11.5168 257.022 11.4767 257.229 11.4741C258.056 11.5676 258.056 11.5689 258.613 11.5395C258.751 11.5329 258.893 11.5248 259.035 11.5262C259.095 11.5262 259.151 11.5502 259.212 11.5636C259.384 11.6037 259.548 11.6398 259.79 11.6184C259.997 11.5997 260.216 11.5957 260.428 11.5836C260.712 11.5689 260.712 11.5689 261.195 11.6531C261.316 11.6745 261.445 11.6718 261.6 11.6611C261.734 11.6518 261.872 11.6718 261.967 11.7106C262.006 11.7266 261.993 11.7533 262.006 11.7761C261.579 11.7974 261.148 11.8121 260.734 11.8442C260.466 11.8642 260.346 11.8068 260.169 11.7761C260.109 11.7654 260.044 11.7427 259.988 11.7453C259.565 11.7654 259.143 11.7881 258.72 11.8148C258.669 11.8175 258.604 11.8482 258.6 11.8669C258.591 11.9016 258.699 11.9351 258.854 11.9337C259.061 11.9324 259.264 11.9097 259.449 11.9644C259.604 12.0125 259.798 12.0339 260.027 12.0126C260.165 12.0005 260.311 12.0005 260.449 11.9898C260.816 11.9578 261.148 11.9645 261.423 12.0553C261.635 12.0794 261.842 12.0567 262.044 12.0446C262.195 12.0353 262.342 12.0259 262.45 12.0513C262.678 12.1048 262.902 12.1582 263.217 12.1221C263.558 12.1595 263.816 12.2384 264.101 12.3025C264.235 12.3332 264.338 12.3506 264.493 12.3306C264.558 12.3226 264.635 12.3226 264.704 12.3185C264.847 12.3119 264.998 12.2918 265.127 12.2998C265.256 12.3092 265.364 12.3479 265.48 12.372C265.537 12.384 265.601 12.4041 265.657 12.4027C265.873 12.396 266.084 12.3827 266.295 12.372C266.507 12.3626 266.718 12.3533 266.929 12.3439C267.106 12.3787 267.287 12.4134 267.464 12.4482C267.748 12.4335 268.033 12.4188 268.313 12.4054C268.628 12.3894 268.628 12.3907 269.08 12.4735C269.283 12.511 269.499 12.4869 269.693 12.4695C270.016 12.4415 270.232 12.4923 270.46 12.5457C270.507 12.5564 270.594 12.5631 270.65 12.5577C270.874 12.539 271.068 12.5537 271.232 12.6032C271.348 12.6379 271.465 12.6539 271.607 12.6473C272.103 12.6219 272.598 12.5951 273.094 12.5724C273.155 12.5698 273.223 12.5818 273.28 12.5925C273.719 12.674 273.724 12.678 274.047 12.6566C274.336 12.6379 274.603 12.6299 274.832 12.7034C274.879 12.7194 274.952 12.7421 275.004 12.7408C275.358 12.7274 275.716 12.7127 276.065 12.69C276.224 12.6793 276.336 12.6833 276.461 12.7141C276.621 12.7528 276.763 12.7996 277.026 12.7822C277.755 12.7328 277.759 12.7408 278.621 12.833C278.682 12.8397 278.764 12.829 278.833 12.8236C278.979 12.8103 279.087 12.829 279.216 12.8597C279.505 12.9292 279.514 12.9252 279.79 12.9105C280.001 12.8985 280.221 12.8958 280.428 12.8757C280.747 12.8464 280.958 12.8985 281.195 12.9479C281.385 12.9867 281.605 12.9546 281.807 12.9426C282.027 12.9292 282.226 12.9332 282.389 12.984C282.501 13.0187 282.622 13.0374 282.764 13.0308C283.26 13.0067 283.756 12.98 284.252 12.9559C284.312 12.9532 284.385 12.9639 284.442 12.9733C284.933 13.0561 284.933 13.0601 285.42 13.0294C285.575 13.0201 285.705 13.0174 285.821 13.0454C285.933 13.0722 286.054 13.0976 286.17 13.1229C286.382 13.1136 286.597 13.1109 286.804 13.0949C286.964 13.0829 287.076 13.0882 287.201 13.1163C287.365 13.1523 287.503 13.2151 287.761 13.1844C287.895 13.1697 288.05 13.1737 288.184 13.1604C288.343 13.143 288.451 13.1537 288.576 13.1884C288.731 13.2298 288.891 13.2726 289.141 13.2512C289.417 13.2272 289.71 13.2232 289.99 13.2044C290.145 13.1938 290.253 13.2045 290.378 13.2392C290.533 13.2833 290.71 13.3114 290.952 13.294C291.443 13.2606 291.447 13.2672 291.926 13.3514C292.047 13.3728 292.176 13.3701 292.331 13.3595C292.465 13.3501 292.603 13.3701 292.698 13.4089C292.788 13.4517 292.779 13.4784 292.788 13.5011ZM254.37 1.44984C254.228 1.45652 254.086 1.46454 253.879 1.34829C253.866 1.32825 253.875 1.3042 253.844 1.28683C253.775 1.25075 253.668 1.22537 253.538 1.22136C253.305 1.21601 253.025 1.26143 253.029 1.29618C253.034 1.32557 253.107 1.35096 253.249 1.37501C253.31 1.38436 253.357 1.4004 253.413 1.41109C253.577 1.44182 253.706 1.50196 253.943 1.47123C253.9 1.38838 253.922 1.4298 253.943 1.47123C253.922 1.522 253.987 1.55808 254.142 1.57278C254.185 1.57679 254.25 1.57411 254.284 1.56609C254.418 1.5367 254.439 1.49662 254.34 1.39106C254.323 1.40843 254.336 1.43915 254.375 1.44717C254.413 1.45519 254.508 1.44851 254.556 1.43916C254.676 1.41377 254.737 1.38036 254.707 1.3523C254.689 1.3376 254.607 1.3189 254.556 1.3189C254.465 1.3189 254.383 1.34829 254.37 1.44984ZM289.231 16.9458C288.917 16.9712 288.555 16.9619 288.24 17.014C288.184 17.0233 288.128 17.0474 288.123 17.0661C288.119 17.0781 288.205 17.0955 288.257 17.1048C288.373 17.1262 288.503 17.1195 288.654 17.1129C288.882 17.1035 289.016 17.165 289.193 17.1957C289.249 17.2051 289.322 17.2117 289.382 17.2091C289.731 17.193 290.076 17.1757 290.426 17.157C290.486 17.153 290.551 17.1436 290.602 17.1316C290.775 17.0928 290.758 17.0674 290.589 17.038C290.404 17.006 290.257 16.9525 290.068 16.9271C289.796 16.891 289.52 16.9391 289.231 16.9458ZM264.748 17.9213C264.536 17.932 264.329 17.9426 264.118 17.9533C264.049 17.9573 263.976 17.9587 263.911 17.964C263.777 17.9734 263.678 18.0014 263.614 18.0455C263.713 18.0803 263.834 18.1003 263.967 18.0963C264.178 18.0883 264.385 18.0709 264.597 18.0669C264.825 18.0616 264.959 18.1217 265.136 18.1524C265.192 18.1618 265.261 18.1631 265.325 18.1644C265.644 18.1698 265.838 18.1003 265.778 18.0028C265.735 17.9266 265.571 17.8812 265.373 17.8905C265.166 17.8999 264.955 17.9106 264.748 17.9213ZM290.706 14.9709C290.758 14.9482 290.814 14.9322 290.84 14.9121C290.917 14.844 290.887 14.7932 290.745 14.7397C290.572 14.6743 290.361 14.7184 290.167 14.7251C290.12 14.7264 290.068 14.7544 290.042 14.7718C290.025 14.7838 290.025 14.8092 290.051 14.8159C290.262 14.8694 290.486 14.9188 290.706 14.9709ZM253.305 11.0238C253.098 11.0345 252.887 11.0425 252.68 11.0572C252.629 11.0612 252.581 11.0866 252.551 11.1039C252.495 11.136 252.555 11.1801 252.732 11.1841C252.935 11.1895 253.146 11.1667 253.357 11.1561C253.624 11.1427 253.784 11.0932 253.685 11.0505C253.59 11.0091 253.461 11.0011 253.305 11.0238ZM26.3635 8.16829C26.5014 8.16161 26.6437 8.15626 26.7817 8.14691C26.911 8.13756 27.0102 8.10816 27.0749 8.06407C26.9671 8.02933 26.8464 8.01062 26.7127 8.01463C26.5015 8.02264 26.2945 8.03333 26.0876 8.04669C25.9583 8.05471 25.8333 8.08411 25.8031 8.12954C25.7729 8.16428 26.0617 8.18433 26.3635 8.16829ZM235.073 7.96251C235.129 7.97454 235.185 7.99859 235.241 7.99859C235.379 7.99859 235.521 7.99057 235.651 7.97721C235.707 7.97186 235.75 7.94781 235.776 7.92911C235.793 7.91708 235.789 7.89571 235.763 7.88502C235.638 7.82088 235.138 7.8436 235.056 7.91709C235.047 7.93045 235.069 7.94781 235.073 7.96251ZM221.471 0.645444C221.484 0.666823 221.488 0.6882 221.505 0.709579C221.54 0.749665 221.635 0.779068 221.773 0.799111C221.88 0.765706 221.936 0.728298 221.932 0.688211C221.928 0.666832 221.915 0.645439 221.898 0.62406C221.863 0.583974 221.768 0.554587 221.63 0.534544C221.523 0.566613 221.471 0.604021 221.471 0.645444ZM300.669 18.1538C300.63 18.1711 300.592 18.1885 300.548 18.2045C300.665 18.2433 300.773 18.2553 300.855 18.2339C300.906 18.2206 300.937 18.2005 300.975 18.1832C300.859 18.1444 300.755 18.1337 300.669 18.1538ZM297.988 18.3355C298.044 18.3475 298.095 18.3636 298.156 18.3716C298.255 18.3849 298.345 18.3622 298.414 18.3141C298.358 18.3021 298.307 18.286 298.246 18.278C298.147 18.2647 298.057 18.2874 297.988 18.3355ZM299.686 18.091C299.656 18.123 299.716 18.1498 299.876 18.1725C299.915 18.1551 299.966 18.1391 299.992 18.1204C300.035 18.0896 299.962 18.0616 299.807 18.0402C299.764 18.0562 299.725 18.0736 299.686 18.091ZM290.585 16.6505C290.555 16.6826 290.615 16.7093 290.775 16.732C290.814 16.7147 290.865 16.6986 290.891 16.6799C290.934 16.6492 290.861 16.6211 290.706 16.5998C290.663 16.6158 290.624 16.6332 290.585 16.6505ZM278.186 7.19553C278.147 7.2129 278.108 7.23027 278.065 7.24631C278.182 7.28506 278.289 7.29708 278.371 7.2757C278.423 7.26234 278.453 7.2423 278.492 7.22492C278.376 7.18617 278.272 7.17549 278.186 7.19553ZM266.308 2.17941C266.412 2.18876 266.498 2.17006 266.571 2.12062C266.515 2.1086 266.463 2.09256 266.403 2.08454C266.304 2.07118 266.213 2.0939 266.144 2.142C266.201 2.15537 266.256 2.16738 266.308 2.17941ZM260.001 1.8654C259.962 1.88277 259.923 1.90014 259.88 1.91618C259.997 1.95493 260.104 1.96695 260.186 1.94557C260.238 1.93221 260.268 1.91216 260.307 1.89479C260.191 1.85604 260.087 1.84669 260.001 1.8654ZM217.229 0.644106C217.19 0.661477 217.151 0.678848 217.108 0.694883C217.224 0.733633 217.332 0.745655 217.414 0.724275C217.466 0.710913 217.496 0.69087 217.535 0.673499C217.418 0.634749 217.315 0.625399 217.229 0.644106ZM4.25519 11.5155C4.19914 11.5035 4.14314 11.4914 4.09141 11.4781C3.96638 11.5142 3.92759 11.5476 3.99657 11.5729C4.03968 11.589 4.1043 11.5983 4.16035 11.6104C4.28969 11.5743 4.31986 11.5422 4.25519 11.5155Z" fill="#FFE492"/>
<path d="M29.7437 6.79716C29.2479 6.82255 28.7564 6.85461 28.2606 6.87064C27.9977 6.87866 27.9029 6.93612 27.7951 6.98956C27.7089 7.03232 27.6097 7.04568 27.4502 7.0537C26.105 7.11917 24.7642 7.18866 23.4234 7.25681C23.2552 7.23944 23.1733 7.21138 23.2121 7.17797C23.2337 7.15793 23.2854 7.12987 23.3372 7.1272C24.2555 7.07776 25.1694 7.02698 26.092 6.98823C26.355 6.97754 26.4284 6.91874 26.562 6.87064C26.6051 6.85461 26.6396 6.83055 26.6957 6.8212C26.7517 6.81051 26.8337 6.81185 26.9069 6.80918C28.39 6.73302 29.8731 6.6582 31.3562 6.58203C31.5244 6.5994 31.6063 6.62746 31.5675 6.66086C31.5459 6.68091 31.4942 6.70897 31.4424 6.71164C30.8733 6.7397 30.3085 6.76776 29.7437 6.79716Z" fill="#FFE492"/>
<path d="M300.477 13.9127C300.252 13.9287 299.968 13.9514 299.735 13.8739C299.623 13.8365 299.502 13.8245 299.356 13.8325C299.144 13.8458 298.929 13.8565 298.713 13.8646C298.657 13.8659 298.584 13.8512 298.528 13.8392C298.407 13.8151 298.304 13.775 298.174 13.7643C298.045 13.7536 297.89 13.783 297.756 13.7764C297.579 13.767 297.506 13.7309 297.554 13.6975C297.579 13.6788 297.631 13.6521 297.687 13.6481C298.485 13.5986 298.489 13.5986 298.713 13.6468C298.886 13.6842 299.045 13.7256 299.291 13.7029C299.498 13.6842 299.718 13.6801 299.929 13.6681C300.222 13.6521 300.222 13.6534 300.696 13.7376C300.817 13.759 300.947 13.7577 301.102 13.7456C301.235 13.7363 301.365 13.7577 301.473 13.7937C301.404 13.8392 301.304 13.8686 301.171 13.8766C300.955 13.8899 300.744 13.8993 300.477 13.9127Z" fill="#FFE492"/>
<path d="M293.445 13.5015C293.988 13.4734 294.536 13.4494 295.079 13.4173C295.303 13.404 295.48 13.4187 295.635 13.4641C295.803 13.5135 295.993 13.5095 296.2 13.5002C296.329 13.4948 296.454 13.5162 296.54 13.5536C296.575 13.5683 296.566 13.595 296.579 13.6164C296.105 13.6405 295.626 13.6659 295.148 13.6872C295.092 13.6899 295.023 13.6766 294.971 13.6659C294.855 13.6432 294.755 13.6031 294.63 13.595C294.363 13.5763 294.096 13.6124 293.824 13.6191C293.695 13.6218 293.57 13.6017 293.484 13.5657C293.449 13.5483 293.458 13.5229 293.445 13.5015Z" fill="#FFE492"/>
<path d="M95.9984 2.01262C96.5631 1.98323 97.1279 1.95518 97.6927 1.92578C97.8608 1.94449 97.9384 1.97121 97.9039 2.00461C97.8824 2.02466 97.8306 2.05272 97.7789 2.05539C96.6493 2.11552 95.5198 2.17297 94.3946 2.23042C94.2264 2.21172 94.1488 2.185 94.1833 2.15159C94.2049 2.13155 94.2566 2.10349 94.3084 2.10082C94.8688 2.07008 95.4336 2.04202 95.9984 2.01262Z" fill="#FFE492"/>
<path d="M9.12477 9.43765C8.87041 9.44032 8.60316 9.48976 8.31862 9.45235C8.26257 9.44566 8.18495 9.42428 8.18926 9.41225C8.19788 9.39221 8.24963 9.36682 8.30567 9.3588C8.55142 9.3254 8.85755 9.32139 8.98257 9.22786C9.04293 9.17975 9.15503 9.16373 9.30592 9.15437C9.46544 9.14368 9.5775 9.14768 9.70253 9.17574C9.86635 9.21182 10.0043 9.27863 10.263 9.24389C10.2759 9.26527 10.3061 9.28932 10.2931 9.30936C10.2802 9.3294 10.2242 9.34812 10.1725 9.36281C10.1251 9.37618 10.0603 9.3882 9.99998 9.39221C9.71543 9.40824 9.43088 9.42161 9.12477 9.43765Z" fill="#FFE492"/>
<path d="M234.051 9.16945C234.262 9.15876 234.482 9.15341 234.689 9.13471C234.853 9.12001 234.956 9.12936 235.086 9.16142C235.305 9.21754 235.318 9.21221 235.857 9.22023C235.918 9.22156 235.991 9.24159 236.026 9.25896C236.047 9.26832 236.017 9.29372 235.991 9.30708C235.952 9.32445 235.896 9.34716 235.844 9.34716C235.504 9.35117 235.159 9.43001 234.827 9.33915C234.659 9.29372 234.473 9.27233 234.245 9.29237C234.107 9.3044 233.96 9.30975 233.818 9.31509C233.68 9.32044 233.538 9.30574 233.452 9.26565C233.327 9.20686 233.4 9.18415 233.624 9.18816C233.766 9.19083 233.909 9.17613 234.051 9.16945Z" fill="#FFE492"/>
<path d="M311.818 18.3793C312.09 18.3659 312.362 18.3499 312.638 18.3392C312.694 18.3365 312.763 18.3512 312.814 18.3606C313.021 18.4007 312.991 18.4688 313 18.5289C313.004 18.5917 312.525 18.6425 312.323 18.5997C312.099 18.5516 311.896 18.4969 311.586 18.5263C311.465 18.5369 311.323 18.5129 311.245 18.4741C311.129 18.418 311.193 18.3953 311.413 18.3993C311.543 18.402 311.68 18.3873 311.818 18.3793Z" fill="#FFE492"/>
<path d="M174.313 0.192577C174.593 0.177879 174.873 0.155174 175.153 0.153838C175.317 0.152502 175.399 0.196588 175.36 0.228657C175.339 0.2487 175.287 0.276761 175.235 0.279434C174.675 0.311503 174.114 0.338232 173.554 0.367628C173.39 0.348921 173.308 0.320865 173.347 0.288796C173.368 0.268753 173.42 0.242029 173.472 0.23802C173.752 0.219313 174.032 0.207275 174.313 0.192577Z" fill="#FFE492"/>
<path d="M306.368 14.0295C306.639 14.0162 306.915 13.9961 307.187 13.9894C307.329 13.9867 307.441 14.0175 307.458 14.0522C307.467 14.0683 307.398 14.0963 307.342 14.103C306.954 14.1484 306.536 14.1538 306.131 14.1765C306.001 14.1832 305.863 14.1618 305.786 14.1244C305.669 14.0669 305.734 14.0456 305.954 14.0496C306.092 14.0509 306.23 14.0362 306.368 14.0295Z" fill="#FFE492"/>
<path d="M240.772 9.34979C240.91 9.34311 241.053 9.32574 241.186 9.33108C241.328 9.33777 241.419 9.37652 241.462 9.41527C241.51 9.45936 241.505 9.50079 241.462 9.5382C241.393 9.60234 241.324 9.59967 241.165 9.55691C240.919 9.4901 240.902 9.49811 240.414 9.50079C240.358 9.50079 240.289 9.48074 240.246 9.46337C240.182 9.43664 240.216 9.39523 240.367 9.37118C240.479 9.35381 240.634 9.35647 240.772 9.34979Z" fill="#FFE492"/>
<path d="M296.597 13.5921C296.8 13.5814 297.003 13.564 297.205 13.564C297.347 13.5627 297.46 13.5934 297.472 13.6268C297.477 13.6428 297.412 13.6696 297.36 13.6776C297.115 13.7137 296.839 13.7163 296.571 13.7284C296.446 13.7337 296.308 13.7123 296.231 13.6749C296.114 13.6188 296.183 13.5934 296.395 13.6014C296.459 13.6041 296.528 13.5961 296.597 13.5921Z" fill="#FFE492"/>
<path d="M263.984 11.9519C263.682 11.9679 263.398 11.9479 263.419 11.9131C263.449 11.8677 263.574 11.8383 263.704 11.8303C263.911 11.8169 264.117 11.8062 264.329 11.7982C264.462 11.7929 264.583 11.8129 264.691 11.8477C264.626 11.8904 264.527 11.9211 264.398 11.9305C264.264 11.9399 264.122 11.9452 263.984 11.9519Z" fill="#FFE492"/>
<path d="M262.476 11.782C262.678 11.7713 262.881 11.7539 263.084 11.7539C263.226 11.7526 263.338 11.7833 263.351 11.8167C263.355 11.8328 263.291 11.8595 263.239 11.8675C262.993 11.9036 262.717 11.9063 262.45 11.9183C262.325 11.9236 262.187 11.9023 262.109 11.8648C261.993 11.8087 262.062 11.7833 262.273 11.7914C262.338 11.794 262.407 11.786 262.476 11.782Z" fill="#FFE492"/>
<path d="M237.908 9.33902C238.111 9.32833 238.314 9.31095 238.516 9.30961C238.658 9.30828 238.771 9.33902 238.783 9.37243C238.788 9.38846 238.723 9.41385 238.671 9.4232C238.426 9.45928 238.15 9.46195 237.882 9.47398C237.757 9.47932 237.619 9.45794 237.542 9.42053C237.425 9.36441 237.494 9.33901 237.706 9.34703C237.77 9.3497 237.839 9.34169 237.908 9.33902Z" fill="#FFE492"/>
<path d="M236.664 9.26054C236.88 9.24985 236.949 9.24316 237.018 9.24316C237.147 9.24316 237.281 9.2592 237.358 9.29795C237.475 9.35407 237.406 9.37012 237.194 9.37279C236.923 9.37546 236.656 9.40352 236.384 9.40887C236.242 9.41154 236.13 9.37946 236.121 9.34605C236.117 9.33002 236.181 9.30196 236.233 9.29662C236.414 9.27657 236.612 9.26454 236.664 9.26054Z" fill="#FFE492"/>
<path d="M261.313 1.39976C261.175 1.40644 261.028 1.42515 260.899 1.41847C260.727 1.40912 260.658 1.37304 260.701 1.33964C260.727 1.32093 260.774 1.29421 260.826 1.2902C261.102 1.27149 261.382 1.25946 261.658 1.24609C261.822 1.26614 261.895 1.2942 261.852 1.3276C261.826 1.34631 261.779 1.37169 261.727 1.37704C261.593 1.3904 261.451 1.39308 261.313 1.39976Z" fill="#FFE492"/>
<path d="M93.3063 2.16951C93.4399 2.16817 93.5606 2.18554 93.6641 2.21894C93.5994 2.2617 93.5046 2.28976 93.3752 2.30179C93.3106 2.30713 93.2373 2.31114 93.1683 2.31247C93.0346 2.31514 92.9139 2.29644 92.8104 2.26303C92.8751 2.22027 92.9742 2.19221 93.0992 2.18019C93.1639 2.17484 93.2373 2.17351 93.3063 2.16951Z" fill="#FFE492"/>
<path d="M304.364 14.0249C304.359 13.9861 304.622 13.9421 304.859 13.9434C304.984 13.9447 305.114 13.9634 305.187 13.9995C305.299 14.0543 305.234 14.0757 305.023 14.0717C304.894 14.069 304.756 14.0917 304.627 14.0877C304.48 14.0864 304.394 14.057 304.364 14.0249Z" fill="#FFE492"/>
<path d="M241.597 9.51205C241.593 9.49736 241.571 9.47999 241.584 9.46663C241.666 9.39314 242.162 9.37042 242.291 9.43456C242.313 9.44659 242.322 9.46662 242.304 9.47865C242.278 9.49736 242.231 9.52141 242.179 9.52675C242.046 9.54011 241.908 9.5468 241.77 9.54813C241.709 9.54813 241.653 9.52542 241.597 9.51205Z" fill="#FFE492"/>
<path d="M11.3897 9.22375C10.881 9.25181 10.8724 9.24913 10.9629 9.18232C11.0448 9.12219 11.1957 9.08612 11.4156 9.08612C11.4803 9.08612 11.5492 9.08345 11.6053 9.08879C11.6657 9.09547 11.7519 9.10882 11.7649 9.12485C11.7907 9.15559 11.7174 9.189 11.588 9.21171C11.532 9.2224 11.4587 9.21974 11.3897 9.22375Z" fill="#FFE492"/>
<path d="M100.038 1.98149C99.8874 2.0042 99.7581 1.99619 99.6633 1.95343C99.5684 1.91067 99.7193 1.85989 99.9823 1.84786C100.051 1.84519 100.125 1.83451 100.189 1.83986C100.254 1.84386 100.319 1.85989 100.357 1.87592C100.426 1.90264 100.383 1.93873 100.245 1.96946C100.189 1.98149 100.107 1.97881 100.038 1.98149Z" fill="#FFE492"/>
<path d="M304.373 13.9248C304.412 13.9074 304.451 13.8901 304.494 13.874C304.655 13.8967 304.724 13.9235 304.681 13.9542C304.655 13.9729 304.603 13.9889 304.564 14.0063C304.403 13.9836 304.338 13.9555 304.373 13.9248Z" fill="#FFE492"/>
<path d="M17.7432 24.4359C17.7432 24.4198 17.8035 24.3944 17.8509 24.3891C17.9415 24.3797 18.0535 24.3985 18.1311 24.4359C18.2389 24.4893 18.1743 24.5174 17.976 24.5027C17.838 24.492 17.7432 24.4653 17.7432 24.4359Z" fill="#FFE492"/>
<path d="M243.208 8.26649C243.264 8.27851 243.32 8.29054 243.372 8.3039C243.299 8.35334 243.208 8.37471 243.113 8.36135C243.053 8.35334 243.001 8.3373 242.945 8.32527C243.018 8.27583 243.105 8.25713 243.208 8.26649Z" fill="#FFE492"/>
<path d="M241.697 8.20716C241.783 8.18712 241.886 8.19782 242.007 8.23657C241.968 8.25394 241.934 8.27398 241.886 8.28735C241.804 8.30873 241.697 8.29802 241.58 8.25794C241.615 8.2419 241.654 8.22453 241.697 8.20716Z" fill="#FFE492"/>
<path d="M240.478 8.26549C240.534 8.27752 240.59 8.28955 240.642 8.30291C240.569 8.35235 240.483 8.37372 240.383 8.36036C240.323 8.35234 240.271 8.3363 240.215 8.32428C240.289 8.27484 240.375 8.2548 240.478 8.26549Z" fill="#FFE492"/>
<path d="M240.51 8.19611C240.576 8.22283 240.541 8.2549 240.415 8.29097C240.359 8.27895 240.294 8.26961 240.25 8.25357C240.181 8.22819 240.216 8.19477 240.346 8.15869C240.398 8.17205 240.454 8.18408 240.51 8.19611Z" fill="#FFE492"/>
</svg>
