<svg width="56" height="69" viewBox="0 0 56 69" fill="none" xmlns="http://www.w3.org/2000/svg">
<path d="M46.3673 38.201C44.4968 28.7872 53.4321 23.2661 53.4321 23.2661C53.4321 23.2661 49.9508 18.2294 44.1 16.9337C38.2521 15.6351 35.3252 17.2576 32.4041 18.4744C29.4802 19.6943 28.0211 19.6943 28.0211 19.6943C23.8016 19.6943 20.717 15.2266 12.6777 17.2605C7.13915 18.6583 1.30867 25.0519 0.255239 32.6829C-0.798195 40.3166 1.47507 50.0573 5.85804 57.6065C10.241 65.1616 14.7058 68.0008 17.8748 68.0826C21.0439 68.1613 24.2072 65.8123 28.0211 65.2403C31.8381 64.6741 34.1871 66.6236 37.931 67.677C41.6603 68.7276 42.9677 67.7529 47.2631 64.0993C51.5702 60.4458 55.4689 49.9669 55.4689 49.9669C55.4689 49.9669 48.2378 47.6206 46.3673 38.201Z" fill="black"/>
<path d="M38.0856 10.8434C42.2292 6.62105 40.8257 0.084404 40.8257 0.084404C40.8257 0.084404 35.007 1.10578 31.1083 5.16191C27.2126 9.22102 27.8575 15.6321 27.8575 15.6321C27.8575 15.6321 33.9418 15.0631 38.0856 10.8434Z" fill="black"/>
</svg>
