<svg width="60" height="61" viewBox="0 0 60 61" fill="none" xmlns="http://www.w3.org/2000/svg">
<g clip-path="url(#clip0_70_12346)">
<path d="M46.4408 34.4738C44.7903 26.1675 52.6744 21.2959 52.6744 21.2959C52.6744 21.2959 49.6026 16.8518 44.4402 15.7085C39.2803 14.5627 36.6978 15.9943 34.1203 17.068C31.5403 18.1443 30.253 18.1443 30.253 18.1443C26.5299 18.1443 23.8082 14.2022 16.7146 15.9969C11.8277 17.2302 6.68315 22.8717 5.75365 29.6048C4.82415 36.3405 6.82997 44.9352 10.6973 51.5963C14.5646 58.2625 18.5042 60.7677 21.3003 60.8398C24.0966 60.9093 26.8877 58.8367 30.253 58.332C33.6209 57.8324 35.6936 59.5525 38.997 60.482C42.2876 61.409 43.4411 60.549 47.2312 57.3252C51.0316 54.1015 54.4716 44.8555 54.4716 44.8555C54.4716 44.8555 48.0912 42.7852 46.4408 34.4738Z" fill="white"/>
<path d="M39.1334 10.3351C42.7896 6.60943 41.5512 0.841797 41.5512 0.841797C41.5512 0.841797 36.417 1.74301 32.977 5.32195C29.5397 8.90352 30.1087 14.5604 30.1087 14.5604C30.1087 14.5604 35.4772 14.0583 39.1334 10.3351Z" fill="white"/>
</g>
<defs>
<clipPath id="clip0_70_12346">
<rect width="60" height="60" fill="white" transform="translate(0 0.841797)"/>
</clipPath>
</defs>
</svg>
