<svg width="211" height="70" viewBox="0 0 211 70" fill="none" xmlns="http://www.w3.org/2000/svg">
<path d="M90.2977 36.9172C90.2977 46.9614 82.4804 54.3628 72.8868 54.3628C63.2932 54.3628 55.476 46.9614 55.476 36.9172C55.476 26.8022 63.2932 19.4716 72.8868 19.4716C82.4804 19.4716 90.2977 26.8022 90.2977 36.9172ZM82.676 36.9172C82.676 30.6406 78.1453 26.346 72.8868 26.346C67.6283 26.346 63.0976 30.6406 63.0976 36.9172C63.0976 43.1309 67.6283 47.4884 72.8868 47.4884C78.1453 47.4884 82.676 43.123 82.676 36.9172Z" fill="#EA4335"/>
<path d="M127.858 36.9172C127.858 46.9614 120.041 54.3628 110.447 54.3628C100.854 54.3628 93.0363 46.9614 93.0363 36.9172C93.0363 26.8101 100.854 19.4716 110.447 19.4716C120.041 19.4716 127.858 26.8022 127.858 36.9172ZM120.236 36.9172C120.236 30.6406 115.706 26.346 110.447 26.346C105.189 26.346 100.658 30.6406 100.658 36.9172C100.658 43.1309 105.189 47.4884 110.447 47.4884C115.706 47.4884 120.236 43.123 120.236 36.9172Z" fill="#FBBC05"/>
<path d="M163.854 20.5256V51.8458C163.854 64.7294 156.294 69.9914 147.358 69.9914C138.946 69.9914 133.883 64.3361 131.974 59.7113L138.61 56.9348C139.791 59.7742 142.687 63.1249 147.35 63.1249C153.071 63.1249 156.615 59.5775 156.615 52.8998V50.3907H156.349C154.643 52.5065 151.357 54.3549 147.21 54.3549C138.531 54.3549 130.581 46.7569 130.581 36.9801C130.581 27.1326 138.531 19.4716 147.21 19.4716C151.349 19.4716 154.636 21.32 156.349 23.3729H156.615V20.5335H163.854V20.5256ZM157.155 36.9801C157.155 30.8372 153.078 26.346 147.89 26.346C142.632 26.346 138.226 30.8372 138.226 36.9801C138.226 43.0601 142.632 47.4884 147.89 47.4884C153.078 47.4884 157.155 43.0601 157.155 36.9801Z" fill="#4285F4"/>
<path d="M175.787 2.16738V53.2928H168.353V2.16738H175.787Z" fill="#34A853"/>
<path d="M204.756 42.6588L210.671 46.623C208.762 49.4624 204.161 54.3547 196.211 54.3547C186.351 54.3547 178.987 46.6938 178.987 36.9092C178.987 26.5346 186.413 19.4636 195.358 19.4636C204.364 19.4636 208.77 26.6684 210.21 30.5617L211 32.5438L187.799 42.2026C189.575 45.7027 192.337 47.4882 196.211 47.4882C200.092 47.4882 202.784 45.569 204.756 42.6588ZM186.546 36.3822L202.056 29.9089C201.203 27.7302 198.636 26.2122 195.616 26.2122C191.742 26.2122 186.351 29.6494 186.546 36.3822Z" fill="#EA4335"/>
<path d="M27.3368 32.3787V24.9773H52.1502C52.3928 26.2672 52.518 27.7931 52.518 29.4449C52.518 34.9979 51.0077 41.8644 46.1405 46.7567C41.4063 51.712 35.3575 54.3548 27.3446 54.3548C12.4925 54.3548 0.00366211 42.1948 0.00366211 27.2662C0.00366211 12.3375 12.4925 0.177544 27.3446 0.177544C35.561 0.177544 41.4141 3.41811 45.8119 7.64186L40.616 12.8645C37.4625 9.89137 33.19 7.57893 27.3368 7.57893C16.4912 7.57893 8.00875 16.3646 8.00875 27.2662C8.00875 38.1677 16.4912 46.9534 27.3368 46.9534C34.3715 46.9534 38.378 44.114 40.9446 41.5341C43.0261 39.4419 44.3955 36.453 44.9354 32.3708L27.3368 32.3787Z" fill="#4285F4"/>
</svg>
