<svg width="281" height="72" viewBox="0 0 281 72" fill="none" xmlns="http://www.w3.org/2000/svg">
<g clip-path="url(#clip0_70_10474)">
<path d="M89.8384 56.2105L93.3243 48.1601C97.0914 50.9554 102.095 52.4089 107.043 52.4089C110.698 52.4089 113.003 51.0113 113.003 48.8869C112.947 42.9609 91.1316 47.601 90.9629 32.7302C90.9067 25.1829 97.6536 19.3688 107.212 19.3688C112.891 19.3688 118.569 20.7664 122.617 23.953L119.356 32.1711C115.646 29.8231 111.035 28.1459 106.65 28.1459C103.67 28.1459 101.702 29.5436 101.702 31.3325C101.758 37.1467 123.742 33.9601 123.967 48.1601C123.967 55.8751 117.389 61.2979 107.943 61.2979C101.027 61.2979 94.6737 59.6766 89.8384 56.2105ZM223.597 45.253C221.854 48.2719 218.593 50.3404 214.826 50.3404C209.26 50.3404 204.762 45.868 204.762 40.3333C204.762 34.7987 209.26 30.3262 214.826 30.3262C218.593 30.3262 221.854 32.3947 223.597 35.4136L233.212 30.1026C229.613 23.7294 222.698 19.3688 214.826 19.3688C203.188 19.3688 193.742 28.7609 193.742 40.3333C193.742 51.9058 203.188 61.2979 214.826 61.2979C222.754 61.2979 229.613 56.9932 233.212 50.564L223.597 45.253ZM128.802 1.98215H140.834V60.5152H128.802V1.98215ZM237.935 1.98215V60.5152H249.967V42.9609L264.248 60.5152H279.654L261.493 39.6625L278.304 20.2073H263.573L249.967 36.364V1.98215H237.935ZM176.593 45.3648C174.85 48.216 171.252 50.3404 167.204 50.3404C161.638 50.3404 157.14 45.868 157.14 40.3333C157.14 34.7987 161.638 30.3262 167.204 30.3262C171.252 30.3262 174.85 32.5625 176.593 35.4695V45.3648ZM176.593 20.2073V24.9593C174.626 21.6609 169.734 19.3688 164.618 19.3688C154.047 19.3688 145.726 28.6491 145.726 40.2774C145.726 51.9058 154.047 61.2979 164.618 61.2979C169.734 61.2979 174.626 59.0058 176.593 55.7073V60.4593H188.626V20.2073H176.593Z" fill="black"/>
<path d="M15.4531 45.3088C15.4531 49.3899 12.1358 52.6883 8.03143 52.6883C3.92701 52.6883 0.609741 49.3899 0.609741 45.3088C0.609741 41.2277 3.92701 37.9293 8.03143 37.9293H15.4531V45.3088ZM19.164 45.3088C19.164 41.2277 22.4812 37.9293 26.5856 37.9293C30.6901 37.9293 34.0073 41.2277 34.0073 45.3088V63.7576C34.0073 67.8387 30.6901 71.1372 26.5856 71.1372C22.4812 71.1372 19.164 67.8387 19.164 63.7576V45.3088Z" fill="#E01E5A"/>
<path d="M26.5854 15.679C22.4809 15.679 19.1637 12.3806 19.1637 8.29945C19.1637 4.21835 22.4809 0.919922 26.5854 0.919922C30.6898 0.919922 34.007 4.21835 34.007 8.29945V15.679H26.5854ZM26.5854 19.4246C30.6898 19.4246 34.007 22.7231 34.007 26.8042C34.007 30.8853 30.6898 34.1837 26.5854 34.1837H7.97491C3.87049 34.1837 0.553223 30.8853 0.553223 26.8042C0.553223 22.7231 3.87049 19.4246 7.97491 19.4246H26.5854Z" fill="#36C5F0"/>
<path d="M56.3284 26.8042C56.3284 22.7231 59.6456 19.4246 63.7501 19.4246C67.8545 19.4246 71.1717 22.7231 71.1717 26.8042C71.1717 30.8853 67.8545 34.1837 63.7501 34.1837H56.3284V26.8042ZM52.6175 26.8042C52.6175 30.8853 49.3003 34.1837 45.1959 34.1837C41.0914 34.1837 37.7742 30.8853 37.7742 26.8042V8.29945C37.7742 4.21835 41.0914 0.919922 45.1959 0.919922C49.3003 0.919922 52.6175 4.21835 52.6175 8.29945V26.8042Z" fill="#2EB67D"/>
<path d="M45.1959 56.3781C49.3003 56.3781 52.6175 59.6765 52.6175 63.7576C52.6175 67.8387 49.3003 71.1372 45.1959 71.1372C41.0914 71.1372 37.7742 67.8387 37.7742 63.7576V56.3781H45.1959ZM45.1959 52.6883C41.0914 52.6883 37.7742 49.3899 37.7742 45.3088C37.7742 41.2277 41.0914 37.9293 45.1959 37.9293H63.8063C67.9107 37.9293 71.228 41.2277 71.228 45.3088C71.228 49.3899 67.9107 52.6883 63.8063 52.6883H45.1959Z" fill="#ECB22E"/>
</g>
<defs>
<clipPath id="clip0_70_10474">
<rect width="280" height="71" fill="white" transform="translate(0.158691 0.584473)"/>
</clipPath>
</defs>
</svg>
